<svg width="133" height="154" viewBox="0 0 133 154" fill="none" xmlns="http://www.w3.org/2000/svg">
<g filter="url(#filter0_d_1_2650)">
<rect x="6" y="4" width="117" height="138" rx="10" fill="white"/>
</g>
<path d="M50.0547 121.922L53.0469 112.625H55.2109L51.1328 124H49.6719L50.0547 121.922ZM47.2891 112.625L50.2578 121.922L50.6641 124H49.1953L45.1328 112.625H47.2891ZM58.3125 115.547V124H56.4219V115.547H58.3125ZM56.2969 113.328C56.2969 113.042 56.3906 112.805 56.5781 112.617C56.7708 112.424 57.0365 112.328 57.375 112.328C57.7083 112.328 57.9714 112.424 58.1641 112.617C58.3568 112.805 58.4531 113.042 58.4531 113.328C58.4531 113.609 58.3568 113.844 58.1641 114.031C57.9714 114.219 57.7083 114.312 57.375 114.312C57.0365 114.312 56.7708 114.219 56.5781 114.031C56.3906 113.844 56.2969 113.609 56.2969 113.328ZM62.2656 117.156V124H60.3828V115.547H62.1797L62.2656 117.156ZM64.8516 115.492L64.8359 117.242C64.7214 117.221 64.5964 117.206 64.4609 117.195C64.3307 117.185 64.2005 117.18 64.0703 117.18C63.7474 117.18 63.4635 117.227 63.2188 117.32C62.974 117.409 62.7682 117.539 62.6016 117.711C62.4401 117.878 62.3151 118.081 62.2266 118.32C62.138 118.56 62.0859 118.828 62.0703 119.125L61.6406 119.156C61.6406 118.625 61.6927 118.133 61.7969 117.68C61.901 117.227 62.0573 116.828 62.2656 116.484C62.4792 116.141 62.7448 115.872 63.0625 115.68C63.3854 115.487 63.7578 115.391 64.1797 115.391C64.2943 115.391 64.4167 115.401 64.5469 115.422C64.6823 115.443 64.7839 115.466 64.8516 115.492ZM71.2891 115.547H73V123.766C73 124.526 72.8385 125.172 72.5156 125.703C72.1927 126.234 71.7422 126.638 71.1641 126.914C70.5859 127.195 69.9167 127.336 69.1562 127.336C68.8333 127.336 68.474 127.289 68.0781 127.195C67.6875 127.102 67.3073 126.951 66.9375 126.742C66.5729 126.539 66.2682 126.271 66.0234 125.938L66.9062 124.828C67.2083 125.188 67.5417 125.451 67.9062 125.617C68.2708 125.784 68.6536 125.867 69.0547 125.867C69.487 125.867 69.8542 125.786 70.1562 125.625C70.4635 125.469 70.7005 125.237 70.8672 124.93C71.0339 124.622 71.1172 124.247 71.1172 123.805V117.461L71.2891 115.547ZM65.5469 119.867V119.703C65.5469 119.062 65.625 118.479 65.7812 117.953C65.9375 117.422 66.1615 116.966 66.4531 116.586C66.7448 116.201 67.099 115.906 67.5156 115.703C67.9323 115.495 68.4036 115.391 68.9297 115.391C69.4766 115.391 69.9427 115.49 70.3281 115.688C70.7188 115.885 71.0443 116.169 71.3047 116.539C71.5651 116.904 71.7682 117.341 71.9141 117.852C72.0651 118.357 72.1771 118.919 72.25 119.539V120.062C72.1823 120.667 72.0677 121.219 71.9062 121.719C71.7448 122.219 71.5312 122.651 71.2656 123.016C71 123.38 70.6719 123.661 70.2812 123.859C69.8958 124.057 69.4401 124.156 68.9141 124.156C68.3984 124.156 67.9323 124.049 67.5156 123.836C67.1042 123.622 66.75 123.323 66.4531 122.938C66.1615 122.552 65.9375 122.099 65.7812 121.578C65.625 121.052 65.5469 120.482 65.5469 119.867ZM67.4297 119.703V119.867C67.4297 120.253 67.4661 120.612 67.5391 120.945C67.6172 121.279 67.7344 121.573 67.8906 121.828C68.0521 122.078 68.2552 122.276 68.5 122.422C68.75 122.562 69.0443 122.633 69.3828 122.633C69.8255 122.633 70.1875 122.539 70.4688 122.352C70.7552 122.164 70.974 121.911 71.125 121.594C71.2812 121.271 71.3906 120.911 71.4531 120.516V119.102C71.4219 118.794 71.3568 118.508 71.2578 118.242C71.1641 117.977 71.0365 117.745 70.875 117.547C70.7135 117.344 70.5104 117.188 70.2656 117.078C70.0208 116.964 69.7318 116.906 69.3984 116.906C69.0599 116.906 68.7656 116.979 68.5156 117.125C68.2656 117.271 68.0599 117.471 67.8984 117.727C67.7422 117.982 67.625 118.279 67.5469 118.617C67.4688 118.956 67.4297 119.318 67.4297 119.703ZM74.5938 119.867V119.688C74.5938 119.078 74.6823 118.513 74.8594 117.992C75.0365 117.466 75.2917 117.01 75.625 116.625C75.9635 116.234 76.375 115.932 76.8594 115.719C77.349 115.5 77.901 115.391 78.5156 115.391C79.1354 115.391 79.6875 115.5 80.1719 115.719C80.6615 115.932 81.0755 116.234 81.4141 116.625C81.7526 117.01 82.0104 117.466 82.1875 117.992C82.3646 118.513 82.4531 119.078 82.4531 119.688V119.867C82.4531 120.477 82.3646 121.042 82.1875 121.562C82.0104 122.083 81.7526 122.539 81.4141 122.93C81.0755 123.315 80.6641 123.617 80.1797 123.836C79.6953 124.049 79.1458 124.156 78.5312 124.156C77.9115 124.156 77.3568 124.049 76.8672 123.836C76.3828 123.617 75.9714 123.315 75.6328 122.93C75.2943 122.539 75.0365 122.083 74.8594 121.562C74.6823 121.042 74.5938 120.477 74.5938 119.867ZM76.4766 119.688V119.867C76.4766 120.247 76.5156 120.607 76.5938 120.945C76.6719 121.284 76.7943 121.581 76.9609 121.836C77.1276 122.091 77.3411 122.292 77.6016 122.438C77.862 122.583 78.1719 122.656 78.5312 122.656C78.8802 122.656 79.1823 122.583 79.4375 122.438C79.6979 122.292 79.9115 122.091 80.0781 121.836C80.2448 121.581 80.3672 121.284 80.4453 120.945C80.5286 120.607 80.5703 120.247 80.5703 119.867V119.688C80.5703 119.312 80.5286 118.958 80.4453 118.625C80.3672 118.286 80.2422 117.987 80.0703 117.727C79.9036 117.466 79.6901 117.263 79.4297 117.117C79.1745 116.966 78.8698 116.891 78.5156 116.891C78.1615 116.891 77.8542 116.966 77.5938 117.117C77.3385 117.263 77.1276 117.466 76.9609 117.727C76.7943 117.987 76.6719 118.286 76.5938 118.625C76.5156 118.958 76.4766 119.312 76.4766 119.688Z" fill="#212121"/>
<path d="M78.2157 26.0176C78.2157 26.0176 76.9525 21 64 21C43.9485 21 33 33.6768 33 50.3714V87.4286H64C55.0454 87.4286 40.0492 74.5171 40.0492 63.811C40.0492 63.811 35.2143 62.5854 35.2143 55.4897C35.2143 49.8721 38.8601 48.9078 38.8601 48.9078C51.9277 48.9078 76.1786 32.0714 76.1786 32.0714C76.1786 32.0714 81.2604 46.9359 89.0259 48.9078C89.0259 48.9078 92.7857 49.5953 92.7857 55.4897C92.7857 62.5843 87.7692 63.811 87.7692 63.811C87.7017 74.5171 72.959 87.4286 64 87.4286H95V50.3714C95 25.5559 78.2157 26.0176 78.2157 26.0176Z" fill="#600D87"/>
<path d="M64.0004 70.8215C68.6283 70.8193 70.9422 67.5001 68.6283 67.5001H59.3715C57.0575 67.5001 59.3703 70.8215 64.0004 70.8215ZM82.2683 55.8751C82.2645 54.6748 81.8233 53.5172 81.0272 52.6189C81.8774 52.7418 82.7156 52.8847 83.5337 52.9887C84.2301 53.1924 84.9199 53.4106 85.5842 53.6652C85.7004 54.0604 85.6971 54.6339 85.5731 55.1875C85.4164 55.893 85.1955 56.5827 84.9132 57.2479C84.6243 57.9348 84.2957 58.6043 83.929 59.2529C83.743 59.5796 83.5526 59.9017 83.3367 60.2084C83.1163 60.5073 82.9126 60.8439 82.5772 61.0255C83.3278 60.7719 83.8482 60.1243 84.3718 59.5685C84.8756 58.9762 85.345 58.3484 85.7447 57.6719C86.1444 56.9955 86.5164 56.2902 86.7588 55.4986C86.9581 54.7845 87.1784 53.9674 86.8751 53.0397C87.8283 52.878 88.7041 52.5093 89.4636 51.7963C84.4814 53.9608 72.0261 43.8459 69.535 59.016C70.4174 56.7763 71.4592 55.2595 72.5996 54.2409C72.4095 54.765 72.3095 55.3176 72.304 55.8751C72.304 57.1964 72.8289 58.4636 73.7632 59.398C74.6976 60.3323 75.9648 60.8572 77.2861 60.8572C78.6075 60.8572 79.8747 60.3323 80.809 59.398C81.7434 58.4636 82.2683 57.1964 82.2683 55.8751ZM55.6968 55.8751C55.6968 55.2993 55.5806 54.7546 55.3979 54.242C56.5394 55.2606 57.5801 56.7763 58.4647 59.0171C55.9736 43.8459 43.5183 53.9619 38.5361 51.7974C39.2956 52.5116 40.1714 52.8791 41.1246 53.0408C40.8202 53.9686 41.0427 54.7856 41.2409 55.4997C41.4833 56.2913 41.8531 56.9966 42.2528 57.6731C42.6562 58.3428 43.1155 58.9772 43.6257 59.5696C44.1516 60.1254 44.6719 60.7742 45.4226 61.0266C45.0849 60.845 44.8845 60.5073 44.6631 60.2095C44.4497 59.9012 44.252 59.5823 44.0707 59.2541C43.7029 58.606 43.3742 57.9364 43.0865 57.249C42.8045 56.5834 42.5829 55.8939 42.4244 55.1886C42.3037 54.6351 42.2971 54.0616 42.4156 53.6663C43.0822 53.4127 43.7597 53.1884 44.4461 52.9943C45.2676 52.888 46.1156 52.7452 46.9692 52.6201C46.1761 53.5193 45.7367 54.676 45.7326 55.8751C45.7326 56.5293 45.8614 57.1772 46.1118 57.7816C46.3622 58.3861 46.7292 58.9353 47.1918 59.398C47.6544 59.8606 48.2037 60.2276 48.8081 60.478C49.4126 60.7283 50.0604 60.8572 50.7147 60.8572C51.369 60.8572 52.0168 60.7283 52.6213 60.478C53.2257 60.2276 53.775 59.8606 54.2376 59.398C54.7002 58.9353 55.0672 58.3861 55.3176 57.7816C55.568 57.1772 55.6968 56.5293 55.6968 55.8751ZM68.3681 74.2702C65.1076 73.0358 64.0004 74.9965 64.0004 74.9965C64.0004 74.9965 62.8933 73.0358 59.6327 74.2702C57.0852 75.2346 52.9146 74.6633 52.929 74.6677C59.5718 84.1061 68.429 84.1061 75.0718 74.6677C75.0873 74.6644 70.9156 75.2346 68.3681 74.2702Z" fill="#600D87"/>
<defs>
<filter id="filter0_d_1_2650" x="0" y="0" width="133" height="154" filterUnits="userSpaceOnUse" color-interpolation-filters="sRGB">
<feFlood flood-opacity="0" result="BackgroundImageFix"/>
<feColorMatrix in="SourceAlpha" type="matrix" values="0 0 0 0 0 0 0 0 0 0 0 0 0 0 0 0 0 0 127 0" result="hardAlpha"/>
<feOffset dx="2" dy="4"/>
<feGaussianBlur stdDeviation="4"/>
<feComposite in2="hardAlpha" operator="out"/>
<feColorMatrix type="matrix" values="0 0 0 0 0 0 0 0 0 0 0 0 0 0 0 0 0 0 0.25 0"/>
<feBlend mode="normal" in2="BackgroundImageFix" result="effect1_dropShadow_1_2650"/>
<feBlend mode="normal" in="SourceGraphic" in2="effect1_dropShadow_1_2650" result="shape"/>
</filter>
</defs>
</svg>
