<svg width="24" height="24" viewBox="0 0 24 24" fill="none" xmlns="http://www.w3.org/2000/svg">
<path d="M20 2H4C2.897 2 2 2.894 2 3.992V16.009C2 17.106 2.897 18 4 18H7V22L13.351 18H20C21.103 18 22 17.106 22 16.008V3.992C21.9984 3.46279 21.7869 2.95583 21.412 2.58237C21.037 2.20891 20.5292 1.99947 20 2ZM11 10C11 10.3956 10.8827 10.7822 10.6629 11.1111C10.4432 11.44 10.1308 11.6964 9.76537 11.8478C9.39991 11.9991 8.99778 12.0387 8.60982 11.9616C8.22186 11.8844 7.86549 11.6939 7.58579 11.4142C7.30608 11.1345 7.1156 10.7781 7.03843 10.3902C6.96126 10.0022 7.00087 9.60009 7.15224 9.23463C7.30362 8.86918 7.55996 8.55682 7.88886 8.33706C8.21776 8.1173 8.60444 8 9 8C9.086 8 9.167 8.015 9.25 8.025C9.332 8.011 9.414 8 9.5 8C9.89782 8 10.2794 8.15804 10.5607 8.43934C10.842 8.72064 11 9.10218 11 9.5C11 9.586 10.988 9.668 10.975 9.75C10.985 9.833 11 9.915 11 10ZM15 12C14.4696 12 13.9609 11.7893 13.5858 11.4142C13.2107 11.0391 13 10.5304 13 10C13 9.914 13.015 9.833 13.025 9.75C13.0101 9.66746 13.0017 9.58386 13 9.5C13 9.10218 13.158 8.72064 13.4393 8.43934C13.7206 8.15804 14.1022 8 14.5 8C14.586 8 14.668 8.011 14.75 8.025C14.833 8.015 14.914 8 15 8C15.5304 8 16.0391 8.21071 16.4142 8.58579C16.7893 8.96086 17 9.46957 17 10C17 10.5304 16.7893 11.0391 16.4142 11.4142C16.0391 11.7893 15.5304 12 15 12Z" fill="#FF7D04"/>
</svg>
