<svg width="133" height="154" viewBox="0 0 133 154" fill="none" xmlns="http://www.w3.org/2000/svg">
<g filter="url(#filter0_d_1_2643)">
<rect x="6" y="4" width="117" height="138" rx="10" fill="white"/>
</g>
<path d="M46.875 120.297H48.8281C48.7656 121.042 48.5573 121.706 48.2031 122.289C47.849 122.867 47.3516 123.323 46.7109 123.656C46.0703 123.99 45.2917 124.156 44.375 124.156C43.6719 124.156 43.0391 124.031 42.4766 123.781C41.9141 123.526 41.4323 123.167 41.0312 122.703C40.6302 122.234 40.3229 121.669 40.1094 121.008C39.901 120.346 39.7969 119.607 39.7969 118.789V117.844C39.7969 117.026 39.9036 116.286 40.1172 115.625C40.3359 114.964 40.6484 114.398 41.0547 113.93C41.4609 113.456 41.9479 113.094 42.5156 112.844C43.0885 112.594 43.7318 112.469 44.4453 112.469C45.3516 112.469 46.1172 112.635 46.7422 112.969C47.3672 113.302 47.8516 113.763 48.1953 114.352C48.5443 114.94 48.7578 115.615 48.8359 116.375H46.8828C46.8307 115.885 46.7161 115.466 46.5391 115.117C46.3672 114.768 46.112 114.503 45.7734 114.32C45.4349 114.133 44.9922 114.039 44.4453 114.039C43.9974 114.039 43.6068 114.122 43.2734 114.289C42.9401 114.456 42.6615 114.701 42.4375 115.023C42.2135 115.346 42.0443 115.745 41.9297 116.219C41.8203 116.688 41.7656 117.224 41.7656 117.828V118.789C41.7656 119.362 41.8151 119.883 41.9141 120.352C42.0182 120.815 42.1745 121.214 42.3828 121.547C42.5964 121.88 42.8672 122.138 43.1953 122.32C43.5234 122.503 43.9167 122.594 44.375 122.594C44.9323 122.594 45.3828 122.505 45.7266 122.328C46.0755 122.151 46.3385 121.893 46.5156 121.555C46.6979 121.211 46.8177 120.792 46.875 120.297ZM55.1875 122.305V118.273C55.1875 117.971 55.1328 117.711 55.0234 117.492C54.9141 117.273 54.7474 117.104 54.5234 116.984C54.3047 116.865 54.0286 116.805 53.6953 116.805C53.388 116.805 53.1224 116.857 52.8984 116.961C52.6745 117.065 52.5 117.206 52.375 117.383C52.25 117.56 52.1875 117.76 52.1875 117.984H50.3125C50.3125 117.651 50.3932 117.328 50.5547 117.016C50.7161 116.703 50.9505 116.424 51.2578 116.18C51.5651 115.935 51.9323 115.742 52.3594 115.602C52.7865 115.461 53.2656 115.391 53.7969 115.391C54.4323 115.391 54.9948 115.497 55.4844 115.711C55.9792 115.924 56.3672 116.247 56.6484 116.68C56.9349 117.107 57.0781 117.643 57.0781 118.289V122.047C57.0781 122.432 57.1042 122.779 57.1562 123.086C57.2135 123.388 57.2943 123.651 57.3984 123.875V124H55.4688C55.3802 123.797 55.3099 123.539 55.2578 123.227C55.2109 122.909 55.1875 122.602 55.1875 122.305ZM55.4609 118.859L55.4766 120.023H54.125C53.776 120.023 53.4688 120.057 53.2031 120.125C52.9375 120.188 52.7161 120.281 52.5391 120.406C52.362 120.531 52.2292 120.682 52.1406 120.859C52.0521 121.036 52.0078 121.237 52.0078 121.461C52.0078 121.685 52.0599 121.891 52.1641 122.078C52.2682 122.26 52.4193 122.404 52.6172 122.508C52.8203 122.612 53.0651 122.664 53.3516 122.664C53.737 122.664 54.0729 122.586 54.3594 122.43C54.651 122.268 54.8802 122.073 55.0469 121.844C55.2135 121.609 55.3021 121.388 55.3125 121.18L55.9219 122.016C55.8594 122.229 55.7526 122.458 55.6016 122.703C55.4505 122.948 55.2526 123.182 55.0078 123.406C54.7682 123.625 54.4792 123.805 54.1406 123.945C53.8073 124.086 53.4219 124.156 52.9844 124.156C52.4323 124.156 51.9401 124.047 51.5078 123.828C51.0755 123.604 50.737 123.305 50.4922 122.93C50.2474 122.549 50.125 122.12 50.125 121.641C50.125 121.193 50.2083 120.797 50.375 120.453C50.5469 120.104 50.7969 119.812 51.125 119.578C51.4583 119.344 51.8646 119.167 52.3438 119.047C52.8229 118.922 53.3698 118.859 53.9844 118.859H55.4609ZM60.9141 117.352V124H59.0312V115.547H60.8047L60.9141 117.352ZM60.5781 119.461L59.9688 119.453C59.974 118.854 60.0573 118.305 60.2188 117.805C60.3854 117.305 60.6146 116.875 60.9062 116.516C61.2031 116.156 61.5573 115.88 61.9688 115.688C62.3802 115.49 62.8385 115.391 63.3438 115.391C63.75 115.391 64.1172 115.448 64.4453 115.562C64.7786 115.672 65.0625 115.852 65.2969 116.102C65.5365 116.352 65.7188 116.677 65.8438 117.078C65.9688 117.474 66.0312 117.961 66.0312 118.539V124H64.1406V118.531C64.1406 118.125 64.0807 117.805 63.9609 117.57C63.8464 117.331 63.6771 117.161 63.4531 117.062C63.2344 116.958 62.9609 116.906 62.6328 116.906C62.3099 116.906 62.0208 116.974 61.7656 117.109C61.5104 117.245 61.2943 117.43 61.1172 117.664C60.9453 117.898 60.8125 118.169 60.7188 118.477C60.625 118.784 60.5781 119.112 60.5781 119.461ZM71.4062 122.656C71.7135 122.656 71.9896 122.596 72.2344 122.477C72.4844 122.352 72.6849 122.18 72.8359 121.961C72.9922 121.742 73.0781 121.49 73.0938 121.203H74.8672C74.8568 121.75 74.6953 122.247 74.3828 122.695C74.0703 123.143 73.6562 123.5 73.1406 123.766C72.625 124.026 72.0547 124.156 71.4297 124.156C70.7839 124.156 70.2214 124.047 69.7422 123.828C69.263 123.604 68.8646 123.297 68.5469 122.906C68.2292 122.516 67.9896 122.065 67.8281 121.555C67.6719 121.044 67.5938 120.497 67.5938 119.914V119.641C67.5938 119.057 67.6719 118.51 67.8281 118C67.9896 117.484 68.2292 117.031 68.5469 116.641C68.8646 116.25 69.263 115.945 69.7422 115.727C70.2214 115.503 70.7812 115.391 71.4219 115.391C72.099 115.391 72.6927 115.526 73.2031 115.797C73.7135 116.062 74.1146 116.435 74.4062 116.914C74.7031 117.388 74.8568 117.94 74.8672 118.57H73.0938C73.0781 118.258 73 117.977 72.8594 117.727C72.724 117.471 72.5312 117.268 72.2812 117.117C72.0365 116.966 71.7422 116.891 71.3984 116.891C71.0182 116.891 70.7031 116.969 70.4531 117.125C70.2031 117.276 70.0078 117.484 69.8672 117.75C69.7266 118.01 69.625 118.305 69.5625 118.633C69.5052 118.956 69.4766 119.292 69.4766 119.641V119.914C69.4766 120.263 69.5052 120.602 69.5625 120.93C69.6198 121.258 69.7188 121.552 69.8594 121.812C70.0052 122.068 70.2031 122.273 70.4531 122.43C70.7031 122.581 71.0208 122.656 71.4062 122.656ZM80.0391 124.156C79.4141 124.156 78.849 124.055 78.3438 123.852C77.8438 123.643 77.4167 123.354 77.0625 122.984C76.7135 122.615 76.4453 122.18 76.2578 121.68C76.0703 121.18 75.9766 120.641 75.9766 120.062V119.75C75.9766 119.089 76.0729 118.49 76.2656 117.953C76.4583 117.417 76.7266 116.958 77.0703 116.578C77.4141 116.193 77.8203 115.898 78.2891 115.695C78.7578 115.492 79.2656 115.391 79.8125 115.391C80.4167 115.391 80.9453 115.492 81.3984 115.695C81.8516 115.898 82.2266 116.185 82.5234 116.555C82.8255 116.919 83.0495 117.354 83.1953 117.859C83.3464 118.365 83.4219 118.922 83.4219 119.531V120.336H76.8906V118.984H81.5625V118.836C81.5521 118.497 81.4844 118.18 81.3594 117.883C81.2396 117.586 81.0547 117.346 80.8047 117.164C80.5547 116.982 80.2214 116.891 79.8047 116.891C79.4922 116.891 79.2135 116.958 78.9688 117.094C78.7292 117.224 78.5286 117.414 78.3672 117.664C78.2057 117.914 78.0807 118.216 77.9922 118.57C77.9089 118.919 77.8672 119.312 77.8672 119.75V120.062C77.8672 120.432 77.9167 120.776 78.0156 121.094C78.1198 121.406 78.2708 121.68 78.4688 121.914C78.6667 122.148 78.9062 122.333 79.1875 122.469C79.4688 122.599 79.7891 122.664 80.1484 122.664C80.6016 122.664 81.0052 122.573 81.3594 122.391C81.7135 122.208 82.0208 121.951 82.2812 121.617L83.2734 122.578C83.0911 122.844 82.8542 123.099 82.5625 123.344C82.2708 123.583 81.9141 123.779 81.4922 123.93C81.0755 124.081 80.5911 124.156 80.0391 124.156ZM86.7812 117.156V124H84.8984V115.547H86.6953L86.7812 117.156ZM89.3672 115.492L89.3516 117.242C89.237 117.221 89.112 117.206 88.9766 117.195C88.8464 117.185 88.7161 117.18 88.5859 117.18C88.263 117.18 87.9792 117.227 87.7344 117.32C87.4896 117.409 87.2839 117.539 87.1172 117.711C86.9557 117.878 86.8307 118.081 86.7422 118.32C86.6536 118.56 86.6016 118.828 86.5859 119.125L86.1562 119.156C86.1562 118.625 86.2083 118.133 86.3125 117.68C86.4167 117.227 86.5729 116.828 86.7812 116.484C86.9948 116.141 87.2604 115.872 87.5781 115.68C87.901 115.487 88.2734 115.391 88.6953 115.391C88.8099 115.391 88.9323 115.401 89.0625 115.422C89.1979 115.443 89.2995 115.466 89.3672 115.492Z" fill="black"/>
<path d="M96.4369 69.1174C96.5339 68.14 94.3104 66.1342 92.8774 64.9509C92.8725 64.5532 92.7842 64.1609 92.6183 63.7995C92.2396 62.9439 89.9144 62.3132 87.9039 61.9156C87.6973 61.628 87.4469 61.3744 87.1619 61.1642C86.3478 60.5666 83.9539 61.1559 81.7967 61.8754C81.738 61.1891 81.6268 60.5082 81.4642 59.8389C83.722 58.7549 85.8946 58.0402 86.6744 57.4639C88.6943 57.6817 90.4019 58.0414 91.0007 57.8592C92.9745 59.1561 94.5779 60.7548 95.1329 60.7323C95.3159 60.7181 95.4929 60.66 95.6488 60.5631C98.3042 63.2907 99 66.0265 99 66.0265C98.535 62.4517 97.3149 60.4045 96.4274 59.3442C96.4795 59.0157 96.4646 58.68 96.3837 58.3573C96.1529 57.4024 93.3934 56.2699 91.6503 55.6416C91.512 55.2714 91.2998 54.9332 91.0267 54.6476C90.3865 53.9731 87.9879 54.1672 85.9608 54.4784C85.671 54.2773 85.3511 54.1235 85.013 54.0228C84.0438 53.7376 81.9754 55.115 80.1767 56.5303C79.3967 55.1275 78.3332 53.9024 77.0539 52.9329C81.6819 48.3724 83.3291 43.781 83.2983 40.0382C83.877 39.385 84.3846 38.475 84.6947 37.2005C85.8614 32.3855 82.9717 28.1954 81.1447 26.1269C80.5447 25.4477 79.8572 24.8181 78.9034 24.8181C78.3366 24.8181 77.9225 25.0157 77.6101 25.2915C76.5344 24.2951 75.0422 23.2916 72.9146 22.2905C68.0333 19.9972 68.9327 21.0031 71.3455 23.4384C73.3075 25.4157 75.1582 27.8995 74.8139 28.761C74.66 28.8541 74.5089 28.9516 74.3606 29.0533C74.3086 29.0592 74.2612 29.071 74.1985 29.071C72.3892 29.071 69.4533 25.3956 68.696 25.0359C68.115 24.7625 68.4771 27.5303 72.4342 31.0425C72.259 31.3691 72.1111 31.717 72.0283 32.1122C71.7455 33.4896 72.2164 34.9735 73.4329 36.5237C74.2754 37.5981 74.7996 38.3898 75.183 38.9684C76.1936 40.4926 76.7734 41.2416 78.9176 41.5942C79.0798 41.6215 79.2549 41.6262 79.4265 41.6357C79.6691 46.2791 77.2527 50.1036 75.6942 52.0573C74.7601 51.553 73.7582 51.1859 72.7193 50.9674C72.7442 50.416 72.7738 49.6326 72.8093 49.4362C73.0235 49.4646 73.2365 49.5001 73.4601 49.5001C76.0208 49.5001 78.0917 47.473 78.0917 44.9727C78.0917 42.4746 76.0208 40.4476 73.4601 40.4476C70.9017 40.4476 68.8262 42.4746 68.8262 44.9727C68.8262 46.8826 70.0415 48.5096 71.7561 49.1747C71.7324 49.4137 71.7242 50.2196 71.7171 50.7887C71.3289 50.7402 70.9361 50.7012 70.5266 50.687C70.4926 50.6308 70.4591 50.5744 70.426 50.5178C70.1633 50.0705 69.6178 49.1404 68.47 49.1404C68.315 49.1404 68.0026 49.164 67.6701 49.3155C67.192 48.4256 66.379 48.3073 65.985 48.3073C65.7542 48.3073 65.2123 48.3558 64.7472 48.7581C64.3994 48.4624 63.9565 48.3023 63.5 48.3073C63.0431 48.302 62.5997 48.4621 62.2516 48.7581C61.905 48.4666 61.4667 48.307 61.0138 48.3073C60.6198 48.3073 59.8056 48.4256 59.3287 49.3167C59.0771 49.202 58.8041 49.142 58.5276 49.1404C57.3786 49.1404 56.8355 50.0705 56.5739 50.5178L56.4734 50.687C56.0639 50.7012 55.6699 50.7402 55.2817 50.7887C55.2798 50.2505 55.2671 49.7124 55.2439 49.1747C56.9562 48.5096 58.1714 46.8826 58.1714 44.9727C58.1714 42.4746 56.0982 40.4476 53.5375 40.4476C50.9815 40.4476 48.9083 42.4746 48.9083 44.9727C48.9083 47.473 50.9815 49.5001 53.5375 49.5001C53.7612 49.5001 53.9765 49.4658 54.1931 49.4362C54.2274 49.6314 54.257 50.416 54.2818 50.9674C53.243 51.1859 52.2411 51.553 51.3069 52.0573C49.7508 50.1048 47.3321 46.2791 47.5747 41.6357C47.7475 41.6262 47.9226 41.6215 48.0894 41.5942C50.2289 41.2416 50.8088 40.4926 51.8181 38.9684C52.2003 38.3898 52.7257 37.5981 53.5683 36.5237C54.7836 34.9735 55.2557 33.4908 54.9729 32.1122C54.8911 31.7375 54.7543 31.3771 54.567 31.0425C58.5241 27.5303 58.8862 24.7613 58.3052 25.0359C57.5466 25.3956 54.612 29.071 52.8027 29.071C52.7399 29.071 52.6926 29.058 52.6394 29.0509C52.4911 28.9492 52.34 28.8517 52.1861 28.7586C51.8418 27.896 53.6913 25.4133 55.6545 23.436C58.0673 21.0007 58.9667 19.996 54.0854 22.2882C51.9578 23.2893 50.4656 24.2927 49.3899 25.2891C49.0347 24.9734 48.5729 24.8042 48.0977 24.8158H48.0965C47.1428 24.8169 46.4553 25.4453 45.8553 26.1257C44.0294 28.193 41.1397 32.3832 42.3053 37.1958C42.6153 38.4714 43.123 39.3838 43.7028 40.0346C43.6733 43.7787 45.3193 48.37 49.9473 52.9294C48.6673 53.8998 47.6034 55.1261 46.8233 56.5303C45.0258 55.1126 42.9561 53.7352 41.9894 54.0204C41.6154 54.1293 41.3101 54.2926 41.0391 54.476C39.0145 54.1636 36.6158 53.9695 35.9757 54.6452C35.668 54.9683 35.4716 55.3091 35.352 55.6392C33.609 56.2676 30.8495 57.4 30.6187 58.355C30.5311 58.7206 30.524 59.0484 30.5726 59.3419C29.6851 60.4045 28.465 62.4517 28 66.0265C28 66.0265 28.6958 63.2907 31.3512 60.5643C31.5071 60.6612 31.6841 60.7192 31.8671 60.7335C32.4221 60.7571 34.0232 59.1573 35.997 57.8603C36.5981 58.0426 38.3056 57.6828 40.3256 57.4651C41.1042 58.0414 43.2768 58.7561 45.5358 59.8412C45.373 60.5102 45.2618 61.1906 45.2033 61.8766C43.0461 61.1583 40.6534 60.569 39.8381 61.1654C39.5522 61.3747 39.3017 61.6283 39.0961 61.9168C37.0833 62.3144 34.758 62.9451 34.3817 63.8007C34.2163 64.1623 34.1281 64.5544 34.1226 64.9521C32.6895 66.1354 30.4637 68.1411 30.5631 69.1186C30.5998 69.4901 30.7039 69.8049 30.8471 70.0652C30.3643 71.3657 29.8921 73.7111 30.6388 77.2362C30.6388 77.2362 30.3891 74.4235 31.9866 70.948C32.176 70.9847 32.3629 70.9823 32.5274 70.9291C33.0564 70.7646 34.0362 68.7127 35.4668 66.8217C36.0905 66.7898 37.5814 65.8668 39.4144 64.9745C40.3824 65.2645 42.8343 65.1769 45.453 65.4751C45.576 66.062 45.7346 66.6703 45.931 67.2962C43.4922 67.7471 38.9577 68.7529 38.4086 70.096C38.2583 70.4617 38.1932 70.806 38.166 71.1338C36.6596 72.5408 35.0089 74.3158 35.1296 75.2459C35.1876 75.6896 35.3237 76.06 35.5059 76.3606C34.8977 78.132 34.0456 81.0217 34.6349 81.8015C34.861 82.1009 35.1106 82.3139 35.3674 82.4571C35.6313 83.8203 36.4443 86.0663 38.9056 88.6708C38.9056 88.6708 37.2347 86.4094 36.7957 82.6015C36.9683 82.539 37.123 82.4354 37.2466 82.2997C37.6122 81.8773 37.3803 79.61 37.6181 77.2386C38.1341 76.8753 38.9245 75.2968 40.0215 73.5644C41.2072 73.2401 43.9691 71.2817 47.0126 70.1019C47.3132 70.7646 47.6481 71.4296 48.0125 72.0947C47.0292 72.4875 46.2778 72.9336 46.0742 73.4283C45.9263 73.7939 45.8589 74.1383 45.8316 74.4661C44.3253 75.873 42.6745 77.648 42.7952 78.5781C42.8532 79.0243 42.9916 79.3923 43.1715 79.694C42.5656 81.4667 41.7136 84.3552 42.3029 85.1374C42.5266 85.4332 42.7786 85.6462 43.0354 85.7882C43.2993 87.1549 44.1123 89.4009 46.5736 92.0042C46.5736 92.0042 44.9027 89.7405 44.4613 85.9349C44.6353 85.8721 44.791 85.7672 44.9146 85.6296C45.2778 85.2095 45.0483 82.9423 45.285 80.5709C45.8009 80.2088 46.5914 78.6302 47.6883 76.8966C48.2445 76.744 49.1604 76.2233 50.2751 75.5973C53.5683 79.9745 58.2117 83.5103 63.4988 83.5103C68.7848 83.5103 73.4305 79.9757 76.7237 75.5985C77.8373 76.2221 78.7543 76.744 79.3093 76.8966C80.4098 78.6314 81.2003 80.21 81.7127 80.5709C81.9505 82.9423 81.7198 85.2095 82.0843 85.6296C82.2074 85.7677 82.3632 85.8727 82.5375 85.9349C82.0961 89.737 80.4252 92.0007 80.4252 92.0007C82.8865 89.3974 83.7007 87.1514 83.9634 85.7846C84.2202 85.6426 84.4698 85.4296 84.6959 85.1338C85.2852 84.3528 84.432 81.4631 83.8249 79.6905C84.0273 79.349 84.1555 78.9688 84.2012 78.5746C84.3243 77.6457 82.6712 75.8707 81.1672 74.4625C81.1399 74.1062 81.0581 73.7562 80.9246 73.4247C80.721 72.9301 79.9684 72.484 78.9851 72.0923C79.3519 71.4273 79.6856 70.761 79.9862 70.0984C83.0285 71.2782 85.7916 73.2354 86.9773 73.5608C88.0755 75.2944 88.8636 76.873 89.3807 77.2351C89.6162 79.6065 89.3878 81.8737 89.7522 82.2962C89.8758 82.4319 90.0305 82.5354 90.2031 82.5979C89.7641 86.4059 88.0932 88.6672 88.0932 88.6672C90.5522 86.0627 91.3687 83.8168 91.6314 82.4536C91.8882 82.3104 92.1378 82.0974 92.3639 81.798C92.9532 81.0194 92.0976 78.1285 91.4929 76.357C91.6728 76.0553 91.8124 75.6861 91.8692 75.2423C91.9899 74.3134 90.3392 72.5384 88.8328 71.1302C88.8055 70.7739 88.7237 70.4239 88.5902 70.0925C88.0388 68.7494 83.5054 67.7435 81.0689 67.2927C81.2654 66.6667 81.4239 66.0585 81.547 65.4715C84.1657 65.1733 86.6176 65.2609 87.5856 64.971C89.4185 65.8632 90.9095 66.785 91.5332 66.8182C92.9638 68.7091 93.9412 70.761 94.4702 70.9255C94.6468 70.9771 94.8336 70.9836 95.0133 70.9445C96.6108 74.4211 96.3588 77.2327 96.3588 77.2327C97.1055 73.7075 96.6333 71.3622 96.1529 70.0617C96.2961 69.8037 96.4002 69.4901 96.4369 69.1174ZM69.4415 44.9727C69.4415 42.7302 71.2402 40.9115 73.4589 40.9115C75.6777 40.9115 77.4763 42.7302 77.4763 44.9727C77.4763 47.2174 75.6777 49.0362 73.4589 49.0362C71.2402 49.0362 69.4415 47.2174 69.4415 44.9727ZM53.5363 49.035C51.3199 49.035 49.5236 47.2174 49.5236 44.9715C49.5236 42.7291 51.3199 40.9103 53.5363 40.9103C55.7551 40.9103 57.5537 42.7291 57.5537 44.9715C57.5537 47.2174 55.7551 49.035 53.5363 49.035Z" fill="url(#paint0_linear_1_2643)"/>
<path d="M76.2185 44.9727C76.2185 43.4332 74.9843 42.1836 73.4589 42.1836C71.9336 42.1836 70.697 43.4343 70.697 44.9727C70.697 46.5169 71.9336 47.7689 73.4589 47.7689C74.9843 47.7689 76.2185 46.5169 76.2185 44.9727ZM53.5363 42.1824C52.0158 42.1824 50.7792 43.4332 50.7792 44.9715C50.7792 46.5157 52.0158 47.7677 53.5363 47.7677C55.0617 47.7677 56.2982 46.5146 56.2982 44.9715C56.2982 43.4332 55.0617 42.1824 53.5363 42.1824Z" fill="black"/>
<defs>
<filter id="filter0_d_1_2643" x="0" y="0" width="133" height="154" filterUnits="userSpaceOnUse" color-interpolation-filters="sRGB">
<feFlood flood-opacity="0" result="BackgroundImageFix"/>
<feColorMatrix in="SourceAlpha" type="matrix" values="0 0 0 0 0 0 0 0 0 0 0 0 0 0 0 0 0 0 127 0" result="hardAlpha"/>
<feOffset dx="2" dy="4"/>
<feGaussianBlur stdDeviation="4"/>
<feComposite in2="hardAlpha" operator="out"/>
<feColorMatrix type="matrix" values="0 0 0 0 0 0 0 0 0 0 0 0 0 0 0 0 0 0 0.25 0"/>
<feBlend mode="normal" in2="BackgroundImageFix" result="effect1_dropShadow_1_2643"/>
<feBlend mode="normal" in="SourceGraphic" in2="effect1_dropShadow_1_2643" result="shape"/>
</filter>
<linearGradient id="paint0_linear_1_2643" x1="64" y1="34.5" x2="63.5" y2="92.0042" gradientUnits="userSpaceOnUse">
<stop stop-color="#E1353C"/>
<stop offset="1" stop-color="#300002"/>
</linearGradient>
</defs>
</svg>
