<svg width="28" height="26" viewBox="0 0 28 26" fill="none" xmlns="http://www.w3.org/2000/svg">
<path d="M7.375 22.125L3.9375 21.375C3.625 21.3125 3.375 21.1509 3.1875 20.89C3 20.63 2.92708 20.3438 2.96875 20.0313L3.3125 16.5L0.96875 13.8125C0.760417 13.5833 0.65625 13.3125 0.65625 13C0.65625 12.6875 0.760417 12.4167 0.96875 12.1875L3.3125 9.50002L2.96875 5.96876C2.92708 5.65626 3 5.37001 3.1875 5.11001C3.375 4.84918 3.625 4.68751 3.9375 4.62501L7.375 3.87501L9.1875 0.812514C9.35417 0.54168 9.58333 0.364597 9.875 0.281264C10.1667 0.19793 10.4583 0.208347 10.75 0.312514L14 1.68751L17.25 0.312514C17.5417 0.208347 17.8333 0.19793 18.125 0.281264C18.4167 0.364597 18.6458 0.54168 18.8125 0.812514L20.625 3.87501L24.0625 4.62501C24.375 4.68751 24.625 4.84918 24.8125 5.11001C25 5.37001 25.0729 5.65626 25.0313 5.96876L24.6875 9.50002L27.0312 12.1875C27.2396 12.4167 27.3438 12.6875 27.3438 13C27.3438 13.3125 27.2396 13.5833 27.0312 13.8125L24.6875 16.5L25.0313 20.0313C25.0729 20.3438 25 20.63 24.8125 20.89C24.625 21.1509 24.375 21.3125 24.0625 21.375L20.625 22.125L18.8125 25.1875C18.6458 25.4584 18.4167 25.6354 18.125 25.7188C17.8333 25.8021 17.5417 25.7917 17.25 25.6875L14 24.3125L10.75 25.6875C10.4583 25.7917 10.1667 25.8021 9.875 25.7188C9.58333 25.6354 9.35417 25.4584 9.1875 25.1875L7.375 22.125ZM11.8125 16.5625C12.0417 16.7917 12.3333 16.9063 12.6875 16.9063C13.0417 16.9063 13.3333 16.7917 13.5625 16.5625L18.875 11.25C19.125 11 19.25 10.7029 19.25 10.3588C19.25 10.0154 19.125 9.71877 18.875 9.46877C18.625 9.21877 18.3283 9.09377 17.985 9.09377C17.6408 9.09377 17.3438 9.21877 17.0938 9.46877L12.6875 13.875L10.875 12.0938C10.625 11.8646 10.3283 11.755 9.985 11.765C9.64083 11.7758 9.35417 11.8958 9.125 12.125C8.89583 12.3542 8.78125 12.6458 8.78125 13C8.78125 13.3542 8.89583 13.6458 9.125 13.875L11.8125 16.5625Z" fill="#157B11"/>
</svg>
