<svg width="45" height="43" viewBox="0 0 45 43" fill="none" xmlns="http://www.w3.org/2000/svg">
<path d="M22.2575 19.7517C24.698 19.7517 27.0386 20.6727 28.7643 22.3121C30.49 23.9514 31.4595 26.1749 31.4595 28.4933V38.9833H13.0554V28.4933C13.0554 26.1749 14.0249 23.9514 15.7506 22.3121C17.4763 20.6727 19.8169 19.7517 22.2575 19.7517ZM9.90458 25.0072C9.61169 25.9457 9.43867 26.9142 9.38926 27.8919L9.37454 28.4933V38.9833H3.85329V31.1158C3.85292 29.608 4.43859 28.1532 5.49795 27.0304C6.5573 25.9075 8.01575 25.1958 9.59355 25.0316L9.90642 25.0072H9.90458ZM34.6103 25.0072C36.2481 25.102 37.7862 25.7868 38.9106 26.922C40.0351 28.0572 40.6614 29.5571 40.6616 31.1158V38.9833H35.1404V28.4933C35.1404 27.2817 34.9563 26.1121 34.6103 25.0072ZM10.2947 14.5067C11.515 14.5067 12.6853 14.9672 13.5482 15.7869C14.411 16.6066 14.8958 17.7183 14.8958 18.8775C14.8958 20.0367 14.411 21.1485 13.5482 21.9682C12.6853 22.7878 11.515 23.2483 10.2947 23.2483C9.07447 23.2483 7.90418 22.7878 7.04132 21.9682C6.17845 21.1485 5.6937 20.0367 5.6937 18.8775C5.6937 17.7183 6.17845 16.6066 7.04132 15.7869C7.90418 14.9672 9.07447 14.5067 10.2947 14.5067ZM34.2202 14.5067C35.4404 14.5067 36.6107 14.9672 37.4736 15.7869C38.3364 16.6066 38.8212 17.7183 38.8212 18.8775C38.8212 20.0367 38.3364 21.1485 37.4736 21.9682C36.6107 22.7878 35.4404 23.2483 34.2202 23.2483C32.9999 23.2483 31.8296 22.7878 30.9667 21.9682C30.1039 21.1485 29.6191 20.0367 29.6191 18.8775C29.6191 17.7183 30.1039 16.6066 30.9667 15.7869C31.8296 14.9672 32.9999 14.5067 34.2202 14.5067ZM22.2575 4.01668C24.2099 4.01668 26.0824 4.75347 27.4629 6.06498C28.8435 7.37648 29.6191 9.15526 29.6191 11.01C29.6191 12.8648 28.8435 14.6435 27.4629 15.955C26.0824 17.2665 24.2099 18.0033 22.2575 18.0033C20.305 18.0033 18.4325 17.2665 17.052 15.955C15.6714 14.6435 14.8958 12.8648 14.8958 11.01C14.8958 9.15526 15.6714 7.37648 17.052 6.06498C18.4325 4.75347 20.305 4.01668 22.2575 4.01668Z" fill="#FFA654"/>
</svg>
