<svg width="133" height="154" viewBox="0 0 133 154" fill="none" xmlns="http://www.w3.org/2000/svg">
<g filter="url(#filter0_d_1_2637)">
<rect x="6" y="4" width="117" height="138" rx="10" fill="white"/>
</g>
<path d="M80.249 37.4902C77.7822 37.4902 75.7969 39.9738 75.7969 43.0551C75.7969 46.1438 77.7822 48.6274 80.249 48.6274C82.701 48.6274 84.6863 46.1438 84.6863 43.0551C84.6863 39.9738 82.701 37.4902 80.249 37.4902ZM48.7528 37.4902C46.3027 37.4902 44.3137 39.9719 44.3137 43.0551C44.3137 46.1438 46.3027 48.6274 48.7528 48.6274C51.2178 48.6274 53.2031 46.1438 53.2031 43.0551C53.2031 39.9719 51.2178 37.4902 48.7528 37.4902Z" fill="black"/>
<path d="M100 33.1384C98.3315 33.0638 97.2842 32.3976 96.4251 31.374C96.2559 27.914 95.0276 24.5758 93.2432 23.1262C92.2409 22.3121 90.828 21.9003 89.0435 21.9003C88.9003 21.9003 88.7524 21.9109 88.6069 21.9156C83.5836 19.2248 78.3355 21.7997 78.3355 21.7997C78.6787 19.962 77.8149 18.9774 78.4645 18C68.7245 18 64.5047 22.0967 64.5 22.1002C64.4976 22.0967 60.2779 18 50.5378 18C51.1875 18.9774 50.3225 19.962 50.6668 21.7997C50.6668 21.7997 45.4187 19.2236 40.3955 21.9156C40.2499 21.9109 40.1008 21.9003 39.9565 21.9003C38.1732 21.9003 36.7603 22.3132 35.758 23.1262C33.9724 24.5758 32.7441 27.914 32.5748 31.374C31.7169 32.3976 30.6685 33.0638 29 33.1384C29 33.1384 29.1467 37.6694 33.7227 40.6916C33.7227 40.6916 28.9231 45.2675 29.7289 54.991C29.7289 54.991 31.6649 52.6291 36.1923 51.7392C30.8602 56.2122 33.97 62.8329 30.0224 67.4042C30.0224 67.4042 35.4539 68.597 37.6561 67.0054C36.7934 74.0143 41.0558 76.7478 41.0558 80.1782C45.8921 78.5878 46.5689 73.8155 46.5689 73.8155C46.5689 82.6526 49.6267 82.339 49.6267 87.0368C49.6267 87.0368 54.9907 86.1919 57.1941 81.7686C58.0698 85.9399 62.2233 86.3907 64.5 89H64.5024C66.7791 86.3907 70.9326 85.9399 71.8083 81.7686C74.0104 86.1919 79.3757 87.0368 79.3757 87.0368C79.3757 82.339 82.4334 82.6526 82.4334 73.8155C82.4334 73.8155 83.1103 78.5878 87.9454 80.1782C87.9454 76.7489 92.2077 74.0143 91.3451 67.0054C93.5473 68.597 98.9788 67.4042 98.9788 67.4042C95.0312 62.8329 98.1422 56.2122 92.8101 51.7392C97.3375 52.6291 99.2722 54.991 99.2722 54.991C100.079 45.2675 95.2785 40.6916 95.2785 40.6916C99.8544 37.6694 100 33.1384 100 33.1384ZM39.069 29.0168C37.4691 30.3197 36.5189 35.7902 39.8086 38.1462C39.4097 38.8659 39.0336 39.598 38.6808 40.3413C36.0976 38.5805 35.2468 35.808 35.0042 33.6756C34.5735 29.9043 35.8184 26.1271 37.2514 24.9639C37.8123 24.5083 38.7483 24.2669 39.9577 24.2669C43.1633 24.2669 47.2801 25.9283 49.7829 28.0974C48.5049 28.6914 47.2979 29.4641 46.15 30.3777C43.9573 28.7305 40.444 27.9021 39.069 29.0168ZM69.0499 78.4731C69.16 76.9466 68.7411 75.6946 68.7411 75.6946C68.3671 77.9642 67.3542 79.5866 67.3542 79.5866C67.398 77.64 66.4063 76.8057 66.4063 76.8057C65.4822 79.4446 64.5154 80.4693 64.5154 80.4693C64.5154 80.4693 63.551 79.4458 62.6256 76.8057C62.6256 76.8057 61.6351 77.64 61.6789 79.5866C61.6789 79.5866 60.666 77.9642 60.2921 75.6946C60.2921 75.6946 59.8732 76.9466 59.982 78.4731C59.982 78.4731 52.2998 73.5066 51.0952 66.7948C53.5613 69.5649 58.9774 74.0509 64.5024 68.242C70.0498 74.0734 75.4872 69.5294 77.9391 66.7628C76.757 73.4912 69.0499 78.4731 69.0499 78.4731ZM62.5215 56.7352C61.9251 55.9306 61.3085 55.0999 60.6021 54.5792C60.2364 54.3082 59.9217 54.0822 59.6436 53.8881C60.75 53.429 63.0043 52.6421 64.5142 52.6421C66.0218 52.6421 68.3861 53.3355 69.5836 53.7343C69.2558 53.9603 68.8712 54.2325 68.4026 54.5792C67.695 55.101 67.0856 55.9353 66.4963 56.7423C65.8324 57.6488 65.0822 58.6759 64.5201 58.6759H64.5177C63.9568 58.6723 63.1936 57.6428 62.5215 56.7352ZM78.6953 65.2446L78.6704 65.3239L78.6243 65.3937C78.5994 65.4315 78.4349 65.6682 78.1604 66.0031C75.8624 67.6669 70.4072 70.579 65.6833 66.1688V59.2238L70.2037 57.3127C70.8924 56.9956 71.4568 56.1341 71.4568 55.4028L71.4521 53.358C71.4521 53.358 69.0144 51.4599 64.5154 51.4599C60.0163 51.4599 57.5645 53.358 57.5645 53.358L57.5526 55.4016C57.5526 56.1329 58.1183 56.9956 58.8058 57.3115L63.3167 59.219V66.1759C58.6318 70.5412 53.2323 67.7106 50.9059 66.0421C50.7316 65.833 50.5662 65.6167 50.41 65.3937L50.3639 65.3239L50.3391 65.2446C50.1225 64.5701 49.8681 63.2305 50.0633 61.9194C50.255 60.6461 50.8656 59.4522 51.1851 58.8818C51.5957 58.1481 57.5515 53.3686 57.5657 53.358C59.4909 49.9654 59.7264 49.6329 61.3855 48.9075C62.0848 48.6034 63.2954 48.4507 64.5071 48.4507C65.7188 48.4507 66.927 48.6034 67.6275 48.9075C69.2854 49.6317 69.528 49.9642 71.4544 53.3568C71.4544 53.3568 77.4409 58.1469 77.8515 58.8818C78.171 59.4522 78.7828 60.6485 78.9722 61.9194C79.1674 63.2305 78.9118 64.5689 78.6953 65.2446ZM84.5362 49.5382C83.9895 52.1084 80.3389 54.6904 78.9213 58.3966C78.9071 58.3694 78.8964 58.3292 78.8834 58.3031C78.5391 57.689 76.344 55.7507 72.3526 52.5403C70.5007 49.285 70.0889 48.6921 68.0985 47.8235C66.9459 47.3206 65.2005 47.2674 64.5047 47.2674C63.8066 47.2674 62.0623 47.3206 60.9109 47.8224C58.9123 48.6957 58.5052 49.2885 56.6367 52.577C52.6749 55.7661 50.4941 57.6926 50.1521 58.3043C50.1367 58.3304 50.1272 58.373 50.113 58.4014C48.6883 54.694 45.0117 52.1108 44.4673 49.5394C43.9112 46.9195 46.3027 40.9531 48.5546 39.6929C48.9581 39.4692 50.3828 39.6929 50.3828 39.6929C50.8041 39.1296 53.0868 32.5443 59.0425 31.458C62.5783 30.8119 64.5154 33.8342 64.5154 33.8342C64.5154 33.8342 66.4265 30.8119 69.9634 31.458C75.9168 32.5443 78.2006 39.1296 78.6231 39.6929C78.6231 39.6929 80.0466 39.4692 80.4513 39.6929C82.7008 40.9519 85.0924 46.9183 84.5362 49.5382ZM93.9981 33.6768C93.7555 35.8092 92.9047 38.5805 90.3215 40.3413C89.9688 39.598 89.5927 38.8659 89.1938 38.1462C92.4846 35.7902 91.5332 30.3197 89.9334 29.0168C88.5583 27.9033 85.045 28.7316 82.8547 30.3777C81.7057 29.4653 80.4999 28.6914 79.2219 28.0974C81.7222 25.9283 85.839 24.2669 89.0447 24.2669C90.2552 24.2669 91.1913 24.5083 91.7533 24.9639C93.184 26.1271 94.43 29.9067 93.9981 33.6768Z" fill="url(#paint0_linear_1_2637)"/>
<path d="M60.2812 122.445V124H54.5703V122.445H60.2812ZM55.1172 112.625V124H53.1562V112.625H55.1172ZM65.3359 124.156C64.7109 124.156 64.1458 124.055 63.6406 123.852C63.1406 123.643 62.7135 123.354 62.3594 122.984C62.0104 122.615 61.7422 122.18 61.5547 121.68C61.3672 121.18 61.2734 120.641 61.2734 120.062V119.75C61.2734 119.089 61.3698 118.49 61.5625 117.953C61.7552 117.417 62.0234 116.958 62.3672 116.578C62.7109 116.193 63.1172 115.898 63.5859 115.695C64.0547 115.492 64.5625 115.391 65.1094 115.391C65.7135 115.391 66.2422 115.492 66.6953 115.695C67.1484 115.898 67.5234 116.185 67.8203 116.555C68.1224 116.919 68.3464 117.354 68.4922 117.859C68.6432 118.365 68.7188 118.922 68.7188 119.531V120.336H62.1875V118.984H66.8594V118.836C66.849 118.497 66.7812 118.18 66.6562 117.883C66.5365 117.586 66.3516 117.346 66.1016 117.164C65.8516 116.982 65.5182 116.891 65.1016 116.891C64.7891 116.891 64.5104 116.958 64.2656 117.094C64.026 117.224 63.8255 117.414 63.6641 117.664C63.5026 117.914 63.3776 118.216 63.2891 118.57C63.2057 118.919 63.1641 119.312 63.1641 119.75V120.062C63.1641 120.432 63.2135 120.776 63.3125 121.094C63.4167 121.406 63.5677 121.68 63.7656 121.914C63.9635 122.148 64.2031 122.333 64.4844 122.469C64.7656 122.599 65.0859 122.664 65.4453 122.664C65.8984 122.664 66.3021 122.573 66.6562 122.391C67.0104 122.208 67.3177 121.951 67.5781 121.617L68.5703 122.578C68.388 122.844 68.151 123.099 67.8594 123.344C67.5677 123.583 67.2109 123.779 66.7891 123.93C66.3724 124.081 65.888 124.156 65.3359 124.156ZM69.8281 119.867V119.688C69.8281 119.078 69.9167 118.513 70.0938 117.992C70.2708 117.466 70.526 117.01 70.8594 116.625C71.1979 116.234 71.6094 115.932 72.0938 115.719C72.5833 115.5 73.1354 115.391 73.75 115.391C74.3698 115.391 74.9219 115.5 75.4062 115.719C75.8958 115.932 76.3099 116.234 76.6484 116.625C76.987 117.01 77.2448 117.466 77.4219 117.992C77.599 118.513 77.6875 119.078 77.6875 119.688V119.867C77.6875 120.477 77.599 121.042 77.4219 121.562C77.2448 122.083 76.987 122.539 76.6484 122.93C76.3099 123.315 75.8984 123.617 75.4141 123.836C74.9297 124.049 74.3802 124.156 73.7656 124.156C73.1458 124.156 72.5911 124.049 72.1016 123.836C71.6172 123.617 71.2057 123.315 70.8672 122.93C70.5286 122.539 70.2708 122.083 70.0938 121.562C69.9167 121.042 69.8281 120.477 69.8281 119.867ZM71.7109 119.688V119.867C71.7109 120.247 71.75 120.607 71.8281 120.945C71.9062 121.284 72.0286 121.581 72.1953 121.836C72.362 122.091 72.5755 122.292 72.8359 122.438C73.0964 122.583 73.4062 122.656 73.7656 122.656C74.1146 122.656 74.4167 122.583 74.6719 122.438C74.9323 122.292 75.1458 122.091 75.3125 121.836C75.4792 121.581 75.6016 121.284 75.6797 120.945C75.763 120.607 75.8047 120.247 75.8047 119.867V119.688C75.8047 119.312 75.763 118.958 75.6797 118.625C75.6016 118.286 75.4766 117.987 75.3047 117.727C75.138 117.466 74.9245 117.263 74.6641 117.117C74.4089 116.966 74.1042 116.891 73.75 116.891C73.3958 116.891 73.0885 116.966 72.8281 117.117C72.5729 117.263 72.362 117.466 72.1953 117.727C72.0286 117.987 71.9062 118.286 71.8281 118.625C71.75 118.958 71.7109 119.312 71.7109 119.688Z" fill="black"/>
<defs>
<filter id="filter0_d_1_2637" x="0" y="0" width="133" height="154" filterUnits="userSpaceOnUse" color-interpolation-filters="sRGB">
<feFlood flood-opacity="0" result="BackgroundImageFix"/>
<feColorMatrix in="SourceAlpha" type="matrix" values="0 0 0 0 0 0 0 0 0 0 0 0 0 0 0 0 0 0 127 0" result="hardAlpha"/>
<feOffset dx="2" dy="4"/>
<feGaussianBlur stdDeviation="4"/>
<feComposite in2="hardAlpha" operator="out"/>
<feColorMatrix type="matrix" values="0 0 0 0 0 0 0 0 0 0 0 0 0 0 0 0 0 0 0.25 0"/>
<feBlend mode="normal" in2="BackgroundImageFix" result="effect1_dropShadow_1_2637"/>
<feBlend mode="normal" in="SourceGraphic" in2="effect1_dropShadow_1_2637" result="shape"/>
</filter>
<linearGradient id="paint0_linear_1_2637" x1="64.5" y1="18" x2="64.5" y2="89" gradientUnits="userSpaceOnUse">
<stop stop-color="#FF9900"/>
<stop offset="1" stop-color="#300002"/>
</linearGradient>
</defs>
</svg>
