<svg width="18" height="18" viewBox="0 0 18 18" fill="none" xmlns="http://www.w3.org/2000/svg">
<path d="M10 4.99999C12.103 4.99999 13 5.89699 13 7.99999H15C15 4.77499 13.225 2.99999 10 2.99999V4.99999ZM13.422 10.443C13.2298 10.2683 12.9773 10.1752 12.7178 10.1832C12.4583 10.1912 12.212 10.2998 12.031 10.486L9.638 12.947C9.062 12.837 7.904 12.476 6.712 11.287C5.52 10.094 5.159 8.93299 5.052 8.361L7.511 5.96699C7.69741 5.78612 7.80614 5.53982 7.81416 5.2802C7.82219 5.02059 7.72888 4.76804 7.554 4.57599L3.859 0.512995C3.68404 0.320352 3.44088 0.203499 3.18115 0.187255C2.92143 0.17101 2.6656 0.256653 2.468 0.425995L0.298 2.28699C0.125111 2.46051 0.0219192 2.69145 0.00799967 2.93599C-0.00700033 3.18599 -0.293 9.108 4.299 13.702C8.305 17.707 13.323 18 14.705 18C14.907 18 15.031 17.994 15.064 17.992C15.3085 17.9783 15.5393 17.8747 15.712 17.701L17.572 15.53C17.7415 15.3325 17.8273 15.0768 17.8112 14.817C17.7952 14.5573 17.6785 14.3141 17.486 14.139L13.422 10.443Z" fill="#FF7D04"/>
</svg>
