<svg width="39" height="37" viewBox="0 0 39 37" fill="none" xmlns="http://www.w3.org/2000/svg">
<path d="M36.2513 5.61249C32.5763 2.36874 26.8369 0.750614 19.0294 0.759989C11.2351 0.771239 5.66818 2.39874 2.32881 5.64249C0.915058 7.01686 0.399433 9.05311 0.976933 10.9862L1.55818 12.9306C2.09818 14.7437 3.92256 15.955 5.82568 15.7637L9.64131 15.3812C11.2782 15.2162 12.5719 14.0481 12.8494 12.4806L13.5826 8.34624C15.4367 7.51508 17.4387 7.06431 19.4701 7.02061C21.5813 6.95874 23.5126 7.28686 25.2638 8.00499L26.4488 12.4206C26.8726 14.0087 28.2976 15.1956 29.9701 15.3569L33.8082 15.7281C35.7357 15.9156 37.4363 14.6912 37.7832 12.8706L38.1544 10.9262C38.5201 8.99874 37.7982 6.97749 36.2513 5.61249ZM19.0313 21.25C19.4043 21.25 19.762 21.3981 20.0257 21.6619C20.2894 21.9256 20.4376 22.2833 20.4376 22.6562V25.9375H22.3126C22.6855 25.9375 23.0432 26.0856 23.3069 26.3494C23.5706 26.6131 23.7188 26.9708 23.7188 27.3437C23.7188 27.7167 23.5706 28.0744 23.3069 28.3381C23.0432 28.6018 22.6855 28.75 22.3126 28.75H19.0313C18.6583 28.75 18.3007 28.6018 18.0369 28.3381C17.7732 28.0744 17.6251 27.7167 17.6251 27.3437V22.6562C17.6251 22.2833 17.7732 21.9256 18.0369 21.6619C18.3007 21.3981 18.6583 21.25 19.0313 21.25ZM19.5001 15.625C16.765 15.625 14.142 16.7115 12.208 18.6455C10.274 20.5794 9.18756 23.2024 9.18756 25.9375C9.18756 28.6725 10.274 31.2956 12.208 33.2295C14.142 35.1635 16.765 36.25 19.5001 36.25C22.2351 36.25 24.8581 35.1635 26.7921 33.2295C28.7261 31.2956 29.8126 28.6725 29.8126 25.9375C29.8126 23.2024 28.7261 20.5794 26.7921 18.6455C24.8581 16.7115 22.2351 15.625 19.5001 15.625ZM12.0001 25.9375C12.0001 23.9484 12.7902 22.0407 14.1968 20.6342C15.6033 19.2277 17.5109 18.4375 19.5001 18.4375C21.4892 18.4375 23.3968 19.2277 24.8034 20.6342C26.2099 22.0407 27.0001 23.9484 27.0001 25.9375C27.0001 27.9266 26.2099 29.8343 24.8034 31.2408C23.3968 32.6473 21.4892 33.4375 19.5001 33.4375C17.5109 33.4375 15.6033 32.6473 14.1968 31.2408C12.7902 29.8343 12.0001 27.9266 12.0001 25.9375Z" fill="#157B11"/>
</svg>
