<svg width="34" height="32" viewBox="0 0 34 32" fill="none" xmlns="http://www.w3.org/2000/svg">
<path d="M19.2679 8.98667C23.1383 8.98667 24.7891 10.5549 24.7891 14.2317H28.47C28.47 8.5933 25.2032 5.49001 19.2679 5.49001V8.98667ZM25.5658 18.5028C25.2121 18.1975 24.7474 18.0347 24.2698 18.0487C23.7921 18.0627 23.3389 18.2525 23.0058 18.578L18.6017 22.8807C17.5416 22.6884 15.4104 22.0572 13.2166 19.9784C11.0228 17.8927 10.3584 15.8629 10.1615 14.8628L14.6871 10.6773C15.0302 10.3611 15.2303 9.93046 15.245 9.47657C15.2598 9.02267 15.0881 8.58113 14.7662 8.24538L7.96588 1.1419C7.64389 0.805095 7.19637 0.600798 6.71836 0.572397C6.24036 0.543996 5.76953 0.693729 5.40586 0.989795L1.41216 4.24344C1.09397 4.54681 0.904057 4.95056 0.87844 5.37811C0.850833 5.81519 0.324474 16.1688 8.77567 24.2007C16.1484 31.2027 25.3836 31.715 27.927 31.715C28.2988 31.715 28.527 31.7045 28.5878 31.701C29.0378 31.6771 29.4625 31.4959 29.7803 31.1923L33.2035 27.3966C33.5154 27.0514 33.6733 26.6042 33.6438 26.1502C33.6142 25.6961 33.3995 25.2708 33.0452 24.9647L25.5658 18.5028Z" fill="#FFA654"/>
</svg>
