<svg width="18" height="19" viewBox="0 0 18 19" fill="none" xmlns="http://www.w3.org/2000/svg">
<path fill-rule="evenodd" clip-rule="evenodd" d="M8.65063 0C13.4205 0 17.3004 3.87986 17.3004 8.64974C17.3004 10.9002 16.4367 12.9527 15.0235 14.4931L17.8044 17.2681C18.0646 17.5284 18.0655 17.9494 17.8053 18.2097C17.6756 18.3411 17.5041 18.406 17.3336 18.406C17.1639 18.406 16.9934 18.3411 16.8628 18.2114L14.0484 15.4049C12.5679 16.5905 10.6906 17.3004 8.65063 17.3004C3.88075 17.3004 0 13.4196 0 8.64974C0 3.87986 3.88075 0 8.65063 0ZM8.65063 1.33237C4.61533 1.33237 1.33237 4.61444 1.33237 8.64974C1.33237 12.685 4.61533 15.968 8.65063 15.968C12.685 15.968 15.968 12.685 15.968 8.64974C15.968 4.61444 12.685 1.33237 8.65063 1.33237Z" fill="#494747" fill-opacity="0.42"/>
</svg>
