<svg width="318" height="321" viewBox="0 0 318 321" fill="none" xmlns="http://www.w3.org/2000/svg">
<path d="M80.2827 1.85207H18.9331V65.8027H80.2827V1.85207Z" fill="#E0E0E0"/>
<path d="M76.1279 1.85207H14.7783V65.8027H76.1279V1.85207Z" fill="#EBEBEB"/>
<path d="M67.8841 10.4501H23.0298V57.2046H67.8841V10.4501Z" fill="#FAFAFA"/>
<path d="M23.0296 57.5154C22.6995 57.9866 22.3245 58.4245 21.9097 58.8231C21.1871 59.5456 20.1756 60.5933 19.0196 61.7132C17.8635 62.8331 16.852 63.823 16.1295 64.5238C15.7387 64.9293 15.3105 65.297 14.8506 65.6221C15.1677 65.1493 15.5333 64.711 15.9416 64.3143C16.6641 63.5918 17.6757 62.5369 18.8317 61.4242C19.9877 60.3115 20.9993 59.3144 21.7579 58.6064C22.1406 58.1973 22.5671 57.8314 23.0296 57.5154Z" fill="#E0E0E0"/>
<path d="M67.884 57.3781C68.3427 57.71 68.7685 58.085 69.1557 58.498C69.8782 59.2205 70.9259 60.232 72.0458 61.3881C73.1657 62.5441 74.1483 63.5557 74.8564 64.2782C75.264 64.667 75.6318 65.0954 75.9546 65.5571C75.4924 65.2324 75.0661 64.8594 74.683 64.4444C73.9605 63.7218 72.9128 62.7103 71.7929 61.5543C70.673 60.3982 69.6903 59.3867 68.9823 58.6642C68.5719 58.2754 68.2038 57.8443 67.884 57.3781Z" fill="#E0E0E0"/>
<path d="M67.761 10.5729C68.0901 10.1121 68.4653 9.686 68.8809 9.30128C69.6034 8.57876 70.6077 7.5311 71.7349 6.41118C72.862 5.29127 73.9024 4.30141 74.6611 3.60056C75.0532 3.19371 75.484 2.82591 75.9472 2.50232C75.6166 2.9598 75.2415 3.38334 74.8273 3.76674C74.1048 4.48927 73.1004 5.54415 71.9372 6.65684C70.7739 7.76953 69.7696 8.76661 69.0037 9.47469C68.6276 9.88179 68.2113 10.2497 67.761 10.5729Z" fill="#E0E0E0"/>
<path d="M22.9068 10.6885C22.4481 10.3566 22.0223 9.98163 21.6351 9.56861C20.9126 8.84609 19.8577 7.83455 18.745 6.67851C17.6323 5.52247 16.6353 4.51094 15.9272 3.78841C15.5203 3.40094 15.1547 2.97236 14.8362 2.50954C15.2931 2.83813 15.7166 3.21081 16.1006 3.62223C16.8231 4.34476 17.878 5.35629 18.9907 6.51233C20.1034 7.66837 21.1005 8.6799 21.8085 9.40243C22.2189 9.79122 22.5871 10.2223 22.9068 10.6885Z" fill="#E0E0E0"/>
<path d="M67.761 57.2046C67.761 57.2046 67.761 57.1252 67.761 56.9807C67.761 56.8362 67.761 56.6049 67.761 56.3304C67.761 55.7451 67.761 54.8853 67.761 53.8088C67.761 51.5978 67.761 48.3754 67.761 44.2787C67.761 36.0925 67.7177 24.4237 67.6815 10.4501L67.8333 10.5946H23.1018L23.268 10.4284C23.268 27.5884 23.268 43.6645 23.268 57.183L23.1234 57.0385L55.5215 57.1107L64.6108 57.1541H67.0168H64.6469H55.5793L23.0656 57.2263H22.9211V57.0818C22.9211 43.5417 22.9211 27.4583 22.9211 10.3272V10.1538H23.0945H67.8261H67.9706V10.3056C67.9706 24.3153 67.9128 36.0202 67.8983 44.2642C67.8983 48.3465 67.8983 51.5545 67.855 53.7582C67.855 54.842 67.855 55.6801 67.855 56.2509C67.855 56.5255 67.855 56.735 67.855 56.8867C67.855 57.0385 67.761 57.2046 67.761 57.2046Z" fill="#E0E0E0"/>
<path d="M34.8647 29.9799C34.8647 29.9799 33.9037 41.5403 46.4251 41.5403C46.4395 35.3772 41.3457 30.5002 34.8647 29.9799Z" fill="#EBEBEB"/>
<path d="M57.8048 29.9872C57.8048 29.9872 46.2444 29.0262 46.2444 41.5476C52.4075 41.5693 57.2846 36.4682 57.8048 29.9872Z" fill="#EBEBEB"/>
<path d="M45.8831 23.6507C45.8831 23.6507 36.4252 32.1403 46.4033 41.5548C51.0419 36.6417 50.6228 28.9323 45.8831 23.6507Z" fill="#E0E0E0"/>
<path d="M238.234 236.03C234.416 233.643 230.104 232.16 225.626 231.694C223.567 231.485 221.291 231.543 219.658 232.793C219.468 232.905 219.312 233.064 219.204 233.256C219.096 233.447 219.041 233.664 219.044 233.884C219.146 234.187 219.354 234.443 219.629 234.606C224.759 238.515 232.519 239.014 238.234 236.015" fill="#E0E0E0"/>
<path d="M237.909 235.668C234.989 233.526 232.264 231.13 229.766 228.508C227.258 225.867 225.495 222.609 224.657 219.065C224.441 217.988 224.376 216.76 225.062 215.907C231.565 220.965 236.622 227.533 237.909 235.668Z" fill="#E0E0E0"/>
<path d="M238.169 235.979C237.566 232.435 237.615 228.812 238.313 225.286C239.13 221.796 241.03 218.458 244.014 216.464C245.134 219.086 244.65 222.107 243.862 224.845C242.638 229.09 240.729 233.107 238.212 236.738" fill="#E0E0E0"/>
<path d="M244.527 247.402C240.669 247.872 237.302 249.909 234.412 252.518C231.516 255.159 229.499 258.623 228.631 262.445C232.425 262.214 235.64 259.555 237.966 256.549C240.293 253.544 241.919 250.263 244.469 247.46" fill="#E0E0E0"/>
<path d="M245.914 249.201C244.395 245.34 243.863 241.161 244.368 237.043C244.872 232.925 246.397 228.998 248.804 225.618C251.008 233.443 250.199 242.287 245.914 249.201Z" fill="#E0E0E0"/>
<path d="M254.317 259.215C250.786 258.995 247.269 259.819 244.203 261.585C241.137 263.35 238.659 265.979 237.077 269.143C236.861 269.569 236.673 270.111 236.962 270.494C237.111 270.638 237.292 270.744 237.491 270.802C237.69 270.86 237.901 270.868 238.103 270.826C241.499 270.61 244.512 268.565 246.998 266.238C249.483 263.912 251.651 261.217 254.396 259.208" fill="#E0E0E0"/>
<path d="M254.05 258.674C252.241 252.845 252.131 246.622 253.732 240.733C254.361 238.421 255.423 235.993 257.561 234.91C257.646 234.852 257.742 234.814 257.843 234.796C257.944 234.779 258.047 234.783 258.147 234.809C258.319 234.899 258.45 235.051 258.515 235.235C259.231 236.85 259.541 238.616 259.418 240.379C259.29 242.135 259.019 243.877 258.609 245.589C257.937 248.775 257.583 252.2 255.835 254.945C255.42 255.605 255.048 256.29 254.722 256.997C254.389 257.72 254.389 257.944 254.086 258.5" fill="#E0E0E0"/>
<path d="M276.303 261.99C274.656 255.711 276.404 248.11 280.357 242.966C280.653 242.59 281.036 242.185 281.513 242.243C282.235 242.308 282.43 243.284 282.394 244.013C282.098 250.464 279.987 256.7 276.303 262.004" fill="#E0E0E0"/>
<path d="M278.312 263.355C285.935 265.342 294.677 263.413 301.014 258.739C297.216 256.835 292.876 256.304 288.731 257.236C284.627 258.175 280.877 260.01 278.319 263.355" fill="#E0E0E0"/>
<path d="M280.003 259.179C284.273 252.221 292.452 247.684 300.609 247.272C299.67 250.588 296.939 253.161 293.868 254.721C290.797 256.282 287.365 256.954 283.977 257.611C282.662 257.864 280.856 258.146 280.003 259.179Z" fill="#E0E0E0"/>
<path d="M276.73 238.92C277.886 234.96 279.049 230.972 279.367 226.853C279.685 222.735 279.092 218.451 276.961 214.917C272.973 222.634 272.575 231.644 276.607 239.331" fill="#E0E0E0"/>
<path d="M290.154 232.135C294.815 223.66 304.323 216.897 313.947 215.943C310.233 225.192 300.111 232.33 290.154 232.135Z" fill="#E0E0E0"/>
<path d="M287.221 233.797C294.172 234.852 300.096 239.295 306.592 241.983C307.952 242.643 309.462 242.932 310.97 242.821C311.674 242.818 312.359 242.598 312.932 242.191C313.506 241.785 313.941 241.212 314.178 240.55C314.415 239.888 314.442 239.169 314.256 238.49C314.07 237.812 313.679 237.208 313.138 236.759C312.217 235.911 311.136 235.255 309.959 234.83C302.878 231.882 295.292 231.81 287.835 233.595" fill="#E0E0E0"/>
<path d="M283.196 238.674C284.771 239.122 285.306 239.938 286.556 241.001C290.806 244.613 295.833 247.194 301.245 248.544C301.809 248.681 302.538 248.739 302.82 248.233C303.102 247.727 302.755 247.25 302.437 246.86C300.078 244.091 297.015 242.009 293.572 240.834C290.176 239.577 287.242 238.053 283.196 238.378" fill="#E0E0E0"/>
<path d="M278.652 209.217C281.505 211.842 284.876 213.841 288.548 215.085C292.22 216.33 296.112 216.792 299.974 216.442C300.328 216.449 300.672 216.326 300.942 216.095C301.476 215.51 300.833 214.607 300.219 214.123C293.948 209.238 286.361 207.208 278.659 209.188" fill="#E0E0E0"/>
<path d="M284.034 207.251C287.808 204.473 292.186 202.627 296.809 201.863C301.433 201.1 306.171 201.441 310.638 202.858C307.285 206.16 302.639 207.916 297.957 208.422C293.284 208.85 288.571 208.454 284.034 207.251Z" fill="#E0E0E0"/>
<path d="M281.896 193.719C281.282 187.461 281.679 182.527 281.245 176.241C281.245 175.735 281.108 175.135 280.638 174.955C279.981 174.702 279.439 175.504 279.193 176.168C278.282 179.082 278.049 182.166 278.511 185.183C278.973 188.201 280.118 191.074 281.86 193.581" fill="#E0E0E0"/>
<path d="M281.448 194.405C285.689 191.782 288.868 188.365 291.809 184.34C293.854 181.537 295.581 178.184 295.118 174.745C292.228 174.687 289.511 176.27 287.64 178.459C285.857 180.725 284.561 183.335 283.832 186.125C283.001 188.878 282.423 191.703 281.448 194.405Z" fill="#E0E0E0"/>
<path d="M291.628 191.58C300.955 188.126 309.59 183.034 317.126 176.544C314.084 175.316 310.623 176.053 307.553 177.267C300.595 180.077 294.908 184.817 291.498 191.493" fill="#E0E0E0"/>
<path d="M284.309 197.83C289.02 198.343 293.803 198.682 298.471 197.902C303.138 197.122 307.401 195.315 311.686 193.509C312.068 193.392 312.391 193.134 312.589 192.786C312.655 192.588 312.66 192.374 312.602 192.172C312.544 191.971 312.426 191.792 312.264 191.659C311.935 191.397 311.549 191.216 311.136 191.132C306.476 189.824 301.44 190.409 296.852 191.984C292.481 193.468 288.277 195.405 284.309 197.765" fill="#E0E0E0"/>
<path d="M257.431 209.433C254.223 202.931 254.433 195.388 257.2 188.704C259.158 191.681 259.367 195.467 259.035 199.015C258.703 202.562 257.59 206.197 257.532 209.759" fill="#E0E0E0"/>
<path d="M244.599 202.96C240.579 202.907 236.592 203.695 232.893 205.271C229.194 206.847 225.865 209.178 223.118 212.114C227.121 212.743 231.24 211.709 234.881 209.946C238.523 208.183 241.76 205.676 244.996 203.198" fill="#E0E0E0"/>
<path d="M235.979 200.077C232.056 199.759 228.277 199.275 224.506 200.431C220.734 201.587 217.28 204.21 215.77 207.844C219.471 208.141 223.184 207.44 226.521 205.814C229.839 204.187 233.004 202.267 235.979 200.077Z" fill="#E0E0E0"/>
<path d="M248.746 200.207C245.22 197.895 241.593 195.546 237.489 194.586C233.385 193.625 228.617 194.333 225.748 197.432C229.079 199.383 233.111 199.6 236.969 199.6C240.827 199.6 245.553 199.549 249.187 200.835" fill="#E0E0E0"/>
<path d="M248.768 200.395C242.735 194.47 240.452 183.827 242.88 175.735C247.64 183.024 249.722 191.741 248.768 200.395Z" fill="#E0E0E0"/>
<path d="M265.357 183.61C266.499 180.966 267.294 178.191 268.32 175.496C269.249 172.764 270.677 170.229 272.532 168.018C274.421 165.798 277.106 164.407 280.01 164.146C279.081 168.226 277.311 172.068 274.814 175.427C272.318 178.786 269.149 181.587 265.509 183.654" fill="#E0E0E0"/>
<path d="M262.359 187.107C260.473 184.521 258.298 181.002 255.748 179.066C253.197 177.129 249.866 175.959 246.752 176.703C248.366 179.531 250.617 181.943 253.326 183.749C256.035 185.555 259.128 186.705 262.359 187.107Z" fill="#E0E0E0"/>
<path d="M262.958 183.82C261.723 180.684 260.48 177.512 259.982 174.181C259.483 170.851 259.787 167.289 261.492 164.384C264.801 170.641 265.87 177.389 263.125 183.892" fill="#E0E0E0"/>
<path d="M265.386 164.391C267.265 158.185 272.944 153.611 279.078 151.516C279.84 151.207 280.665 151.083 281.484 151.155C281.891 151.202 282.276 151.367 282.59 151.631C282.905 151.894 283.136 152.243 283.254 152.636C283.478 153.691 282.604 154.637 281.809 155.338C277.012 159.432 271.435 162.511 265.415 164.391" fill="#E0E0E0"/>
<path d="M265.459 159.312C265.697 155.316 265.943 151.256 267.243 147.462C268.544 143.669 271.058 140.114 274.707 138.46C275.328 142.499 273.544 146.516 271.39 150.02C269.237 153.524 266.651 156.776 265.357 160.656" fill="#E0E0E0"/>
<path d="M265.357 162.072C263.811 157.549 263.645 151.805 260.943 147.86C259.049 145.107 256.015 143.228 254.382 140.317C253.397 143.113 253.535 146.182 254.765 148.879C255.995 151.548 257.691 153.978 259.772 156.053C261.781 158.221 263.493 159.803 265.357 162.072Z" fill="#E0E0E0"/>
<path d="M265.386 295.255C265.271 295.255 265.162 265.082 265.155 227.879C265.148 190.677 265.234 160.49 265.357 160.49C265.48 160.49 265.581 190.655 265.588 227.879C265.596 265.104 265.509 295.255 265.386 295.255Z" fill="#E0E0E0"/>
<path d="M291.751 204.882C291.387 205.059 291.007 205.202 290.617 205.308L287.495 206.363C284.865 207.259 281.245 208.53 277.322 210.163C273.399 211.796 269.772 213.183 267.684 214.99C266.853 215.687 266.19 216.564 265.747 217.555C265.451 218.277 265.4 218.696 265.357 218.689C265.34 218.584 265.34 218.476 265.357 218.371C265.404 218.071 265.479 217.776 265.581 217.49C265.975 216.438 266.623 215.499 267.467 214.758C268.727 213.694 270.137 212.82 271.65 212.165C273.319 211.384 275.176 210.568 277.142 209.759C281.079 208.147 284.728 206.868 287.387 206.066C288.716 205.655 289.8 205.344 290.559 205.142C290.947 205.017 291.346 204.93 291.751 204.882Z" fill="#E0E0E0"/>
<path d="M300.392 183.654C300.392 183.654 300.298 183.784 300.074 183.993L299.106 184.904L295.494 188.184L283.464 198.899C278.767 203.075 274.714 207.071 271.903 210.076C270.494 211.579 269.382 212.822 268.623 213.689C268.276 214.094 267.987 214.412 267.749 214.686C267.51 214.961 267.438 215.033 267.424 215.019C267.498 214.883 267.586 214.755 267.684 214.636C267.864 214.39 268.132 214.029 268.493 213.581C269.215 212.678 270.292 211.413 271.672 209.867C275.303 205.901 279.142 202.131 283.175 198.574C287.885 194.398 292.177 190.626 295.291 187.953L298.998 184.774L300.017 183.928C300.131 183.823 300.257 183.731 300.392 183.654Z" fill="#E0E0E0"/>
<path d="M278.399 203.147C278.276 203.09 279.251 200.828 280.234 197.96C281.217 195.091 281.679 192.678 281.809 192.7C281.939 192.721 281.643 195.2 280.646 198.104C280.229 199.333 279.747 200.539 279.201 201.717C279.003 202.23 278.733 202.711 278.399 203.147Z" fill="#E0E0E0"/>
<path d="M265.415 221.391C265.145 221.138 264.903 220.857 264.692 220.553L262.836 218.176C261.282 216.16 259.129 213.386 256.716 210.344C254.303 207.302 252.084 204.564 250.48 202.606L248.595 200.272C248.347 199.997 248.129 199.697 247.944 199.376C248.23 199.611 248.492 199.875 248.725 200.163C249.209 200.684 249.895 201.457 250.726 202.418C252.395 204.347 254.657 207.042 257.07 210.091C259.483 213.14 261.607 215.943 263.103 218.003C263.825 219.036 264.44 219.874 264.844 220.466C265.061 220.758 265.252 221.067 265.415 221.391Z" fill="#E0E0E0"/>
<path d="M259.635 213.985C259.563 214.065 258.024 212.23 257.214 209.455C256.759 207.976 256.573 206.427 256.665 204.882H256.853C256.774 205.228 256.709 205.416 256.673 205.409C256.636 205.402 256.636 205.207 256.673 204.853H256.868C256.958 206.358 257.217 207.849 257.641 209.296C258.414 211.998 259.751 213.913 259.635 213.985Z" fill="#E0E0E0"/>
<path d="M252.207 204.6C251.688 204.202 251.119 203.872 250.516 203.617C248.995 203.162 247.394 203.034 245.82 203.241C244.226 203.364 242.646 203.621 241.095 204.007C240.46 204.211 239.81 204.365 239.151 204.47C239.732 204.126 240.36 203.87 241.015 203.711C242.568 203.229 244.17 202.926 245.791 202.808C247.423 202.591 249.083 202.769 250.632 203.328C251.29 203.553 251.848 204.004 252.207 204.6Z" fill="#E0E0E0"/>
<path d="M250.401 202.324C250.401 202.389 249.418 201.926 247.814 201.377C243.618 199.939 239.124 199.599 234.758 200.387C233.089 200.684 232.078 200.994 232.056 200.922C232.268 200.789 232.499 200.691 232.743 200.633C233.383 200.409 234.037 200.225 234.701 200.084C239.109 199.116 243.704 199.465 247.916 201.088C248.548 201.331 249.166 201.611 249.765 201.926C250.192 202.158 250.416 202.295 250.401 202.324Z" fill="#E0E0E0"/>
<path d="M265.357 192.7C265.242 192.7 264.396 189.81 263.471 186.139C262.547 182.469 261.882 179.499 262.026 179.47C262.171 179.441 262.987 182.36 263.912 186.031C264.837 189.701 265.473 192.671 265.357 192.7Z" fill="#E0E0E0"/>
<path d="M265.48 192.7C265.35 192.743 264.801 190.778 263.385 188.769C262.497 187.582 261.46 186.514 260.3 185.59C260.739 185.7 261.147 185.91 261.492 186.204C262.367 186.845 263.126 187.629 263.739 188.524C264.674 189.74 265.274 191.18 265.48 192.7Z" fill="#E0E0E0"/>
<path d="M265.386 279.193C265.343 279.193 265.249 278.471 264.909 277.185C264.412 275.381 263.736 273.631 262.893 271.961C260.813 267.705 257.019 262.301 252.2 256.896C249.809 254.165 247.496 251.593 245.531 249.129C243.766 246.959 242.17 244.657 240.755 242.243C239.809 240.615 239.004 238.908 238.349 237.142C238.125 236.506 237.966 236.022 237.872 235.697C237.81 235.51 237.771 235.316 237.757 235.119C237.8 235.119 238.017 235.842 238.515 237.041C239.229 238.772 240.07 240.448 241.03 242.055C242.47 244.43 244.081 246.698 245.849 248.84C247.822 251.275 250.141 253.84 252.532 256.571C257.366 261.997 261.152 267.459 263.182 271.795C264.006 273.493 264.643 275.276 265.083 277.112C265.203 277.61 265.292 278.114 265.35 278.622C265.384 278.811 265.396 279.002 265.386 279.193Z" fill="#E0E0E0"/>
<path d="M289.215 252.265C288.813 252.53 288.396 252.771 287.965 252.987C286.835 253.63 285.753 254.355 284.728 255.155C283.21 256.334 281.787 257.632 280.472 259.035C278.977 260.61 277.438 262.445 275.87 264.403C272.734 268.341 269.801 271.823 268.045 274.605C267.149 275.985 266.499 277.148 266.072 277.965C265.876 278.401 265.646 278.821 265.386 279.222C265.407 279.099 265.445 278.98 265.502 278.868C265.596 278.644 265.726 278.304 265.921 277.893C266.472 276.706 267.092 275.553 267.778 274.439C269.49 271.592 272.402 268.059 275.53 264.128C277.105 262.163 278.659 260.328 280.183 258.753C281.52 257.354 282.97 256.069 284.518 254.909C285.571 254.131 286.691 253.446 287.864 252.864C288.276 252.655 288.586 252.525 288.839 252.431C288.952 252.35 289.08 252.294 289.215 252.265Z" fill="#E0E0E0"/>
<path d="M289.677 260.993C288.809 261.188 287.928 261.316 287.04 261.376C284.922 261.595 282.827 262.007 280.783 262.604C278.763 263.263 276.867 264.257 275.176 265.545C273.883 266.549 273.276 267.373 273.218 267.322C273.309 267.097 273.441 266.891 273.608 266.715C274.018 266.19 274.478 265.707 274.981 265.27C276.652 263.879 278.575 262.821 280.646 262.156C282.718 261.542 284.854 261.164 287.011 261.029C287.897 260.935 288.789 260.923 289.677 260.993Z" fill="#E0E0E0"/>
<path d="M273.984 266.368C273.847 266.289 275.039 264.468 275.956 262.033C276.874 259.598 277.026 257.409 277.185 257.431C277.253 257.911 277.238 258.4 277.141 258.876C277.009 260.014 276.75 261.134 276.368 262.214C275.969 263.285 275.456 264.309 274.837 265.27C274.614 265.68 274.326 266.051 273.984 266.368Z" fill="#E0E0E0"/>
<path d="M296.932 228.826C296.796 228.913 296.654 228.988 296.505 229.05L295.262 229.614C294.721 229.845 294.063 230.141 293.319 230.531C292.575 230.921 291.708 231.312 290.797 231.861L289.352 232.677C288.854 232.966 288.355 233.306 287.835 233.631C286.773 234.281 285.711 235.076 284.576 235.878C279.716 239.507 275.476 243.899 272.019 248.883C271.253 250.047 270.494 251.138 269.887 252.221C269.577 252.756 269.252 253.262 268.984 253.768L268.211 255.213C267.698 256.137 267.337 257.019 266.976 257.778C266.614 258.536 266.333 259.223 266.123 259.757L265.603 261.015C265.55 261.167 265.479 261.312 265.393 261.448C265.415 261.289 265.456 261.134 265.516 260.986C265.639 260.646 265.783 260.22 265.964 259.692C266.193 259.01 266.456 258.34 266.752 257.684C267.091 256.911 267.438 256.015 267.937 255.075L268.659 253.587C268.919 253.074 269.237 252.561 269.548 252.012C270.14 250.914 270.892 249.844 271.658 248.638C275.1 243.59 279.375 239.166 284.302 235.553C285.458 234.744 286.534 233.956 287.611 233.32C288.146 232.995 288.644 232.663 289.15 232.381L290.595 231.579C291.513 231.051 292.401 230.668 293.16 230.307C293.804 229.986 294.465 229.699 295.14 229.447L296.419 228.963C296.582 228.893 296.755 228.847 296.932 228.826Z" fill="#E0E0E0"/>
<path d="M278.074 241.456C278.251 240.848 278.612 240.31 279.107 239.917C280.267 238.903 281.75 238.335 283.29 238.313C284.797 238.303 286.291 238.595 287.683 239.173C288.273 239.359 288.832 239.629 289.345 239.975C288.752 239.857 288.171 239.683 287.611 239.454C286.232 238.983 284.784 238.739 283.326 238.732C281.882 238.762 280.484 239.253 279.338 240.134C278.886 240.544 278.464 240.986 278.074 241.456Z" fill="#E0E0E0"/>
<path d="M275.256 244.367C275.133 244.302 276.195 242.742 276.441 240.509C276.687 238.277 276.044 236.514 276.174 236.478C276.304 236.441 276.463 236.868 276.665 237.605C277.18 239.547 276.94 241.612 275.993 243.385C275.624 244.05 275.328 244.396 275.256 244.367Z" fill="#E0E0E0"/>
<path d="M244.548 283.528C245.199 295.089 248.674 306.786 254.021 318.643H277.257C282.358 306.866 285.588 295.161 286.166 283.528H244.548Z" fill="#E0E0E0"/>
<path d="M282.402 302.148C282.402 302.271 274.75 302.372 265.307 302.372C255.863 302.372 248.219 302.271 248.219 302.148C248.219 302.025 255.871 301.931 265.307 301.931C274.743 301.931 282.402 302.032 282.402 302.148Z" fill="#FAFAFA"/>
<path d="M281.881 306.324C281.881 306.447 274.707 306.548 265.863 306.548C257.019 306.548 249.837 306.447 249.837 306.324C249.837 306.201 257.012 306.107 265.863 306.107C274.714 306.107 281.881 306.208 281.881 306.324Z" fill="#FAFAFA"/>
<path d="M254.375 291.064C254.664 294.628 254.664 298.209 254.375 301.772C254.252 301.772 254.158 299.373 254.158 296.418C254.158 293.463 254.274 291.064 254.375 291.064Z" fill="#FAFAFA"/>
<path d="M266.846 291.064C266.969 291.064 267.062 293.543 267.062 296.606C267.062 299.67 266.969 302.148 266.846 302.148C266.723 302.148 266.629 299.67 266.629 296.606C266.629 293.543 266.723 291.064 266.846 291.064Z" fill="#FAFAFA"/>
<path d="M278.536 290.97C278.659 290.97 278.753 293.499 278.753 296.62C278.753 299.742 278.659 302.278 278.536 302.278C278.413 302.278 278.319 299.749 278.319 296.62C278.319 293.492 278.413 290.97 278.536 290.97Z" fill="#FAFAFA"/>
<path d="M285.443 291.064C285.443 291.187 276.47 291.281 265.401 291.281C254.331 291.281 245.358 291.187 245.358 291.064C245.358 290.941 254.324 290.847 265.401 290.847C276.477 290.847 285.443 290.941 285.443 291.064Z" fill="#FAFAFA"/>
<path d="M272.958 176.038H9.6123V184.152H272.958V176.038Z" fill="#EBEBEB"/>
<path d="M32.3935 183.155L12.6614 318.607H16.8954L41.23 184.152L32.3935 183.155Z" fill="#EBEBEB"/>
<path d="M254.36 182.295L275.176 318.607H270.949L245.517 183.538L254.36 182.295Z" fill="#EBEBEB"/>
<path d="M19.612 143.359V161.624H16.563V163.589H19.612V175.814H76.6337V164.688H72.4142V162.26H76.6337V158.647H78.5123V157H76.2724V143.359H19.612Z" fill="#F5F5F5"/>
<path d="M61.4824 143.387V175.605H76.6193V164.485H72.3998V162.267L76.6193 162.339V158.705H78.534L78.4979 156.826L76.2725 156.776V143.337L61.4824 143.387Z" fill="#E0E0E0"/>
<path d="M62.559 163.322C62.559 163.437 52.2486 163.524 39.525 163.524C26.8013 163.524 16.4836 163.437 16.4836 163.322C16.4836 163.206 26.8013 163.12 39.525 163.12C52.2486 163.12 62.559 163.214 62.559 163.322Z" fill="#E0E0E0"/>
<path d="M62.559 161.465C62.559 161.581 52.2486 161.667 39.525 161.667C26.8013 161.667 16.4836 161.581 16.4836 161.465C16.4836 161.349 26.8013 161.263 39.525 161.263C52.2486 161.263 62.559 161.357 62.559 161.465Z" fill="#E0E0E0"/>
<path d="M65.5215 156.472C65.5215 156.588 55.2038 156.675 42.4874 156.675C29.7709 156.675 19.446 156.588 19.446 156.472C19.446 156.357 29.7565 156.27 42.4874 156.27C55.2183 156.27 65.5215 156.364 65.5215 156.472Z" fill="#E0E0E0"/>
<path d="M65.7959 170.092C65.7959 170.208 55.4854 170.301 42.7618 170.301C30.0381 170.301 19.7205 170.208 19.7205 170.092C19.7205 169.976 30.0309 169.89 42.7618 169.89C55.4927 169.89 65.7959 169.969 65.7959 170.092Z" fill="#E0E0E0"/>
<path d="M80.846 131.105H70.9041V142.925H80.846V131.105Z" fill="#F5F5F5"/>
<path d="M71.2437 130.331H26.3171V143.662H71.2437V130.331Z" fill="#E0E0E0"/>
<path d="M81.1423 131.459H70.0371V130.353H81.1423C81.2918 130.353 81.4351 130.412 81.5408 130.518C81.6465 130.624 81.7059 130.767 81.7059 130.917C81.7003 131.062 81.6384 131.2 81.5334 131.301C81.4283 131.402 81.2881 131.459 81.1423 131.459Z" fill="#E0E0E0"/>
<path d="M81.1423 143.669H70.0371V142.542H81.1423C81.2918 142.542 81.4351 142.601 81.5408 142.707C81.6465 142.813 81.7059 142.956 81.7059 143.106C81.7059 143.255 81.6465 143.398 81.5408 143.504C81.4351 143.61 81.2918 143.669 81.1423 143.669Z" fill="#E0E0E0"/>
<path d="M67.7178 130.331H62.4072V143.662H67.7178V130.331Z" fill="#EBEBEB"/>
<path d="M35.905 130.483H30.5945V143.814H35.905V130.483Z" fill="#EBEBEB"/>
<path d="M80.8461 133.063C80.8461 133.063 78.6785 133.12 76.0413 133.12C73.404 133.12 71.2292 133.12 71.2292 133.063C71.2292 133.005 73.3968 132.998 76.0413 132.998C78.6857 132.998 80.8461 133.026 80.8461 133.063Z" fill="#E0E0E0"/>
<path d="M80.8461 134.833C80.8461 134.833 78.6785 134.891 76.0413 134.891C73.404 134.891 71.2292 134.891 71.2292 134.833C71.2292 134.775 73.3968 134.775 76.0413 134.775C78.6857 134.775 80.8461 134.797 80.8461 134.833Z" fill="#E0E0E0"/>
<path d="M80.8461 137.015C80.8461 137.015 78.6785 137.073 76.0413 137.073C73.404 137.073 71.2292 137.073 71.2292 137.015C71.2292 136.957 73.3968 136.957 76.0413 136.957C78.6857 136.957 80.8461 136.979 80.8461 137.015Z" fill="#E0E0E0"/>
<path d="M80.8461 139.197C80.8461 139.197 78.6785 139.255 76.0413 139.255C73.404 139.255 71.2292 139.255 71.2292 139.197C71.2292 139.139 73.3968 139.139 76.0413 139.139C78.6857 139.139 80.8461 139.161 80.8461 139.197Z" fill="#E0E0E0"/>
<path d="M80.8461 141.379C80.8461 141.379 78.6785 141.437 76.0413 141.437C73.404 141.437 71.2292 141.437 71.2292 141.379C71.2292 141.321 73.3968 141.321 76.0413 141.321C78.6857 141.321 80.8461 141.343 80.8461 141.379Z" fill="#E0E0E0"/>
<path d="M59.5459 135.815H39.3369V138.214H59.5459V135.815Z" fill="#EBEBEB"/>
<path d="M61.8075 117.391L67.3998 130.527H63.8016L61.3162 123.511L61.8075 117.391Z" fill="#E0E0E0"/>
<path d="M44.6403 105.513L42.48 130.527H60.7526L62.7613 105.513H44.6403Z" fill="#EBEBEB"/>
<path d="M46.425 107.492L44.532 128.446L58.2527 128.626L60.1024 107.37L46.425 107.492Z" fill="#FAFAFA"/>
<path d="M49.3368 110.397L48.2603 124.811H55.5794L56.8655 110.397H49.3368Z" fill="#E0E0E0"/>
<path d="M259.318 12.5353L252.563 12.5719L252.745 46.1905L259.5 46.1539L259.318 12.5353Z" fill="#E0E0E0"/>
<path d="M211.524 12.6207L194.025 12.7154L194.126 31.2768L211.625 31.1821L211.524 12.6207Z" fill="#EBEBEB"/>
<path d="M228.937 12.5337L211.437 12.6284L211.538 31.1898L229.037 31.0951L228.937 12.5337Z" fill="#F5F5F5"/>
<path d="M194.051 17.856C205.677 17.9572 217.338 17.856 228.964 17.6971C229.006 17.6886 229.045 17.6656 229.072 17.632C229.1 17.5984 229.115 17.5563 229.115 17.5128C229.115 17.4694 229.1 17.4272 229.072 17.3936C229.045 17.36 229.006 17.3371 228.964 17.3286C217.341 17.2611 205.706 17.331 194.059 17.5381C194.016 17.5381 193.976 17.5548 193.946 17.5847C193.916 17.6145 193.9 17.6549 193.9 17.6971C193.9 17.7392 193.916 17.7796 193.946 17.8095C193.976 17.8393 194.016 17.856 194.059 17.856H194.051Z" fill="#E0E0E0"/>
<path d="M214.911 30.8821L183.12 31.0541L183.202 46.1763L214.993 46.0043L214.911 30.8821Z" fill="#EBEBEB"/>
<path d="M246.549 30.7037L214.758 30.8757L214.84 45.998L246.631 45.8259L246.549 30.7037Z" fill="#F5F5F5"/>
<path d="M183.134 35.2688C204.253 35.5072 225.445 35.2688 246.564 34.9581C246.614 34.9581 246.662 34.9383 246.697 34.9031C246.732 34.8679 246.752 34.8201 246.752 34.7703C246.752 34.7204 246.732 34.6727 246.697 34.6374C246.662 34.6022 246.614 34.5824 246.564 34.5824C225.445 34.474 204.246 34.4813 183.134 34.9509C183.092 34.9509 183.051 34.9676 183.021 34.9975C182.992 35.0273 182.975 35.0677 182.975 35.1099C182.975 35.152 182.992 35.1924 183.021 35.2223C183.051 35.2521 183.092 35.2688 183.134 35.2688Z" fill="#E0E0E0"/>
<path d="M294.41 46.1862H171.248V51.6051H294.41V46.1862Z" fill="#E0E0E0"/>
<path d="M196.414 48.7945H191.414V67.2839H196.414V48.7945Z" fill="#E0E0E0"/>
<path d="M271.051 48.7945H266.051V67.2839H271.051V48.7945Z" fill="#E0E0E0"/>
<path d="M265.905 -3.30975e-05L259.149 0.0365181L259.399 46.2774L266.155 46.2409L265.905 -3.30975e-05Z" fill="#EBEBEB"/>
<path d="M276.464 8.61322L265.966 8.67002L266.168 46.1396L276.666 46.0828L276.464 8.61322Z" fill="#F5F5F5"/>
<path d="M276.397 15.8401C274.653 16.0211 272.898 16.0815 271.145 16.0208C269.394 16.0816 267.641 16.0213 265.899 15.8401C269.394 15.5993 272.902 15.5993 276.397 15.8401Z" fill="#E0E0E0"/>
<path d="M276.397 14.2651C274.653 14.446 272.898 14.5064 271.145 14.4457C269.394 14.5065 267.641 14.4462 265.899 14.2651C269.394 14.0242 272.902 14.0242 276.397 14.2651Z" fill="#E0E0E0"/>
<path d="M276.397 40.4566C272.902 40.6974 269.394 40.6974 265.899 40.4566C269.394 40.2158 272.902 40.2158 276.397 40.4566Z" fill="#E0E0E0"/>
<path d="M276.397 38.8814C272.902 39.1223 269.394 39.1223 265.899 38.8814C269.394 38.6406 272.902 38.6406 276.397 38.8814Z" fill="#E0E0E0"/>
<path d="M271.318 35.4495C271.217 35.4495 271.13 31.6707 271.13 27.0032C271.13 22.3357 271.217 18.5641 271.318 18.5641C271.419 18.5641 271.499 22.3429 271.499 27.0032C271.499 31.6635 271.412 35.4495 271.318 35.4495Z" fill="#E0E0E0"/>
<path d="M287.936 17.8271H276.506V46.1139H287.936V17.8271Z" fill="#EBEBEB"/>
<path d="M264.374 7.90679C264.376 8.2915 264.263 8.66798 264.05 8.98856C263.838 9.30913 263.535 9.55937 263.18 9.70758C262.825 9.85579 262.434 9.89532 262.056 9.82114C261.679 9.74697 261.332 9.56243 261.059 9.2909C260.787 9.01937 260.601 8.67307 260.525 8.29586C260.45 7.91864 260.488 7.52748 260.635 7.17192C260.781 6.81635 261.031 6.51237 261.35 6.29849C261.67 6.0846 262.046 5.97043 262.431 5.97042C262.945 5.97042 263.438 6.1742 263.803 6.53713C264.167 6.90007 264.373 7.39257 264.374 7.90679Z" fill="#E0E0E0"/>
<path d="M263.031 13.2535H261.832V40.76H263.031V13.2535Z" fill="#E0E0E0"/>
<path d="M304.121 318.607C304.121 318.708 236.203 318.795 152.506 318.795C68.8087 318.795 0.876953 318.708 0.876953 318.607C0.876953 318.506 68.7509 318.419 152.506 318.419C236.261 318.419 304.121 318.499 304.121 318.607Z" fill="#263238"/>
<path d="M151.263 227.078L181.053 318.607H175.627L140.729 227.078H151.263Z" fill="#E0E0E0"/>
<path d="M151.263 227.078H150.541H148.518L140.7 227.121L140.772 227.013C146.755 242.597 159.652 276.303 174.593 315.32C174.998 316.389 175.403 317.487 175.807 318.506L175.634 318.39H181.053L180.872 318.636C172.556 292.979 165.136 270.111 159.796 253.652C157.137 245.408 154.999 238.775 153.525 234.187C152.802 231.897 152.224 230.119 151.834 228.906L151.4 227.526C151.306 227.215 151.263 227.049 151.263 227.049C151.263 227.049 151.321 227.193 151.422 227.497L151.877 228.848C152.275 230.054 152.86 231.81 153.611 234.079C155.114 238.652 157.282 245.264 159.984 253.471C165.367 269.952 172.845 292.842 181.226 318.499L181.306 318.744H175.525L175.475 318.621C175.078 317.567 174.666 316.504 174.261 315.435C159.413 276.361 146.588 242.619 140.671 227.056V226.948H140.786L148.648 226.991H150.649C151.054 227.063 151.263 227.078 151.263 227.078Z" fill="#263238"/>
<path d="M92.6376 227.078L62.8479 318.607H68.2668L103.172 227.078H92.6376Z" fill="#E0E0E0"/>
<path d="M92.6376 227.078C92.6376 227.078 92.8616 227.078 93.3096 227.078H95.311L103.172 227.034H103.288L103.244 227.143C97.334 242.706 84.5092 276.448 69.6613 315.522L68.4403 318.708L68.3969 318.831H62.6167L62.6962 318.585L83.9456 253.558L90.3183 234.166C91.0408 231.897 91.655 230.141 92.0524 228.934L92.5076 227.583C92.6087 227.28 92.6665 227.135 92.6665 227.135C92.6665 227.135 92.6232 227.302 92.5292 227.612L92.0957 228.992C91.7055 230.206 91.1348 231.984 90.405 234.274C88.9238 238.862 86.7924 245.495 84.1335 253.739C78.7868 270.198 71.3737 293.066 63.0574 318.723L62.8768 318.477H68.2958L68.1223 318.593L69.3362 315.406C84.278 276.39 97.1751 242.655 103.121 227.106L103.201 227.215L95.376 227.172H93.3601L92.6376 227.078Z" fill="#263238"/>
<path d="M141.495 229.086C141.332 229.225 141.158 229.351 140.975 229.462L139.443 230.473L133.8 234.173C129.038 237.309 122.471 241.658 115.253 246.499L96.7705 258.963L91.1637 262.727L89.6392 263.695C89.4671 263.823 89.2832 263.934 89.0901 264.028C89.2492 263.886 89.4182 263.755 89.5959 263.637L91.0843 262.575L96.626 258.717C101.315 255.48 107.825 251.037 115.05 246.196C122.276 241.355 128.858 237.034 133.663 233.956C136.061 232.424 137.998 231.189 139.371 230.343L140.938 229.39C141.116 229.275 141.302 229.173 141.495 229.086Z" fill="#263238"/>
<path d="M84.3431 129.501C84.3431 129.501 75.0081 130.462 73.6498 136.083C72.2914 141.704 67.8696 211.225 73.6498 221.073C79.43 230.921 153.85 229.549 159.016 228.197C164.182 226.846 166.617 223.494 166.09 219.397C165.562 215.3 114.884 210.221 114.884 210.221L117.977 137.665C117.977 137.665 99.7546 128.489 84.3431 129.501Z" fill="#263238"/>
<path d="M166.133 221.153H165.909H165.244L162.694 221.218C160.476 221.276 157.268 221.305 153.301 221.297C145.353 221.297 134.407 221.023 122.334 220.156C116.3 219.715 110.556 219.159 105.347 218.566C100.138 217.974 95.4556 217.323 91.5396 216.709C89.5743 216.42 87.8113 216.11 86.2579 215.85C84.7045 215.589 83.3678 215.351 82.2768 215.127L79.7696 214.643L79.1193 214.513L78.9026 214.455C78.9769 214.445 79.0522 214.445 79.1266 214.455L79.7841 214.549L82.3057 214.961C83.3967 215.149 84.7334 215.373 86.294 215.604C87.8547 215.835 89.6176 216.139 91.5757 216.406C95.499 216.991 100.181 217.591 105.383 218.183C110.585 218.776 116.329 219.303 122.362 219.744C134.429 220.611 145.375 220.907 153.301 220.994C157.26 221.037 160.468 221.045 162.694 221.037H165.916L166.133 221.153Z" fill="#455A64"/>
<path d="M155.208 265.053C155.15 265.14 143.359 256.853 128.879 246.557C114.4 236.261 102.702 227.829 102.76 227.771C102.818 227.713 114.61 235.972 129.096 246.275C143.583 256.578 155.266 264.967 155.208 265.053Z" fill="#263238"/>
<path d="M90.9397 67.0816L84.9789 56.5833C88.6605 50.6058 89.973 43.4674 88.6586 36.5712C87.3441 29.6751 83.4978 23.52 77.8755 19.3158C72.2533 15.1117 65.2618 13.1625 58.2754 13.8515C51.289 14.5404 44.813 17.8177 40.1203 23.0391C35.4275 28.2605 32.8576 35.0484 32.9155 42.0685C32.9734 49.0885 35.6551 55.833 40.4334 60.9763C45.2116 66.1195 51.7409 69.2895 58.7377 69.863C65.7345 70.4366 72.6929 68.3723 78.245 64.0759L90.9397 67.0816Z" fill="white"/>
<path d="M90.9397 67.0816L78.2088 64.1915H78.0354L78.1437 64.047L78.3027 64.206C74.3891 67.2637 69.7342 69.2284 64.8132 69.8995C63.3394 70.1089 61.8499 70.1863 60.3624 70.1307C59.5965 70.0873 58.8162 70.0656 58.0287 70.0006L55.6516 69.6466C48.568 68.2567 42.2798 64.2213 38.0653 58.3607C35.7248 55.1282 34.1015 51.4332 33.3039 47.5229C32.4944 43.3753 32.6079 39.1003 33.6362 35.0015C34.7005 30.7236 36.7687 26.7607 39.6693 23.4411C42.6142 20.0337 46.3297 17.3784 50.5072 15.6956C54.5141 14.1134 58.8254 13.4516 63.1225 13.7593C67.1805 14.0392 71.1272 15.2084 74.6829 17.184C81.0731 20.7189 85.8629 26.5716 88.064 33.5348C88.9313 36.507 89.343 39.5935 89.2851 42.6892C89.1319 47.627 87.6789 52.437 85.0728 56.6339V56.5183L90.9397 67.0744C90.5495 66.4097 88.7143 63.2378 84.8849 56.6267V56.5761V56.5183C87.4349 52.3411 88.8427 47.5672 88.9672 42.6747C89.0143 39.6185 88.5953 36.573 87.7244 33.6432C85.5494 26.7597 80.8204 20.9707 74.5095 17.4658C71.0012 15.5248 67.1085 14.3802 63.108 14.1133C58.8768 13.8129 54.6321 14.4673 50.6878 16.028C46.5768 17.6871 42.9209 20.3027 40.0233 23.6579C37.166 26.927 35.1299 30.8308 34.0842 35.0449C33.0645 39.0784 32.9485 43.2875 33.7446 47.3711C34.517 51.2397 36.1085 54.8981 38.4121 58.1006C42.5604 63.8963 48.7613 67.8933 55.7527 69.2781L58.1009 69.6393C58.8812 69.7044 59.6471 69.726 60.4058 69.7766C61.8758 69.8357 63.3482 69.7656 64.8059 69.5671C69.6816 68.9237 74.3018 67.0073 78.2016 64.0109L78.9241 63.469L78.3822 64.1915L78.3172 64.0181L90.9397 67.0816Z" fill="#263238"/>
<path d="M56.2368 38.1084H58.0142L61.8869 32.7039V29.1563C61.8869 29.1563 64.6325 28.9901 64.3146 33.6287C63.9967 38.2673 64.3146 37.0896 64.3146 37.0896C64.3146 37.0896 70.1454 37.0896 70.6295 37.6243C70.9835 37.9855 71.1425 43.7802 71.2003 46.9159C71.2406 47.6738 71.0254 48.4232 70.5892 49.0442C70.1529 49.6651 69.5209 50.1217 68.7942 50.3407C68.5896 50.3978 68.3781 50.427 68.1657 50.4274C66.7206 50.4274 59.2858 49.2425 59.2858 49.2425H56.2151L56.2368 38.1084Z" fill="#FF725E"/>
<path d="M51.1504 37.133L52.2486 49.2786H55.2905V37.3786L51.1504 37.133Z" fill="#FF725E"/>
<path d="M203.343 191.045C203.343 191.045 220.062 191.045 220.748 206.623C221.435 222.2 172.079 304.38 172.079 304.38L156.451 296.96L189.961 217.215L117.247 210.062L119.306 191.768L203.343 191.045Z" fill="#FFBE9D"/>
<path d="M175.381 299.641L174.897 300.746C174.897 300.746 190.214 316.497 188.842 320.124L151.913 303.506L157.946 291.44C162.289 296.462 167.91 299.337 175.381 299.641Z" fill="#455A64"/>
<g opacity="0.6">
<path d="M159.919 297.061C159.515 297.01 159.107 297.11 158.771 297.34C158.435 297.57 158.196 297.916 158.098 298.311C158.031 298.713 158.122 299.126 158.35 299.463C158.579 299.801 158.928 300.038 159.326 300.125C159.754 300.177 160.186 300.069 160.54 299.823C160.893 299.576 161.143 299.208 161.241 298.788C161.269 298.362 161.131 297.942 160.854 297.617C160.577 297.292 160.185 297.087 159.76 297.047" fill="white"/>
</g>
<g opacity="0.6">
<path d="M151.913 303.513L153.358 300.623L188.22 317.61C188.22 317.61 189.542 319.055 188.834 320.139L151.913 303.513Z" fill="white"/>
</g>
<path d="M174.976 300.905C174.89 301.078 173.95 300.761 172.809 300.941C171.667 301.122 170.844 301.664 170.706 301.519C170.569 301.375 171.313 300.45 172.708 300.255C174.102 300.06 175.092 300.753 174.976 300.905Z" fill="#263238"/>
<path d="M178.134 304.25C178.098 304.438 177.173 304.395 176.219 304.886C175.265 305.378 174.723 306.1 174.55 306.013C174.377 305.927 174.716 304.85 175.916 304.265C177.115 303.68 178.206 304.077 178.134 304.25Z" fill="#263238"/>
<path d="M178.25 309.872C178.069 309.872 178.25 308.824 179.124 308.044C179.998 307.263 181.053 307.256 181.06 307.437C181.067 307.617 180.338 307.914 179.615 308.564C178.893 309.214 178.437 309.937 178.25 309.872Z" fill="#263238"/>
<path d="M171.711 132.311L174.68 141.393L158.488 142.658L156.603 137.795L171.711 132.311Z" fill="#FFBE9D"/>
<path d="M217.685 144.226C217.996 144.847 218.805 144.948 219.426 145.273C220.005 145.605 220.479 146.092 220.795 146.679C221.11 147.267 221.254 147.931 221.211 148.597C221.107 149.928 220.667 151.21 219.932 152.325C219.706 152.778 219.377 153.171 218.971 153.474C218.765 153.617 218.521 153.693 218.27 153.693C218.02 153.693 217.775 153.617 217.569 153.474C217.093 153.076 217.15 152.339 217.251 151.725C217.634 149.42 217.136 146.509 217.678 144.233" fill="#FFBE9D"/>
<path d="M110 30.3484C109.862 29.3352 110.11 28.3074 110.693 27.4675C111.276 26.6276 112.153 26.0366 113.15 25.811L131.025 14.4384C137.839 12.9067 146.422 24.2865 147.643 31.1504C148.877 38.6947 149.361 46.3426 149.088 53.9822C148.597 65.7305 140.895 66.9877 140.895 66.9877L146.675 106.055L118.822 88.8802L110 30.3484Z" fill="#FFBE9D"/>
<path d="M143.93 40.8973C143.977 41.2815 143.874 41.6692 143.64 41.9781C143.407 42.287 143.062 42.4928 142.68 42.5519C142.303 42.6215 141.914 42.5389 141.599 42.3222C141.283 42.1054 141.066 41.7722 140.996 41.3958C140.948 41.0116 141.052 40.624 141.286 40.315C141.519 40.0061 141.864 39.8003 142.246 39.7412C142.623 39.6716 143.011 39.7542 143.327 39.971C143.643 40.1877 143.859 40.5209 143.93 40.8973Z" fill="#263238"/>
<path d="M146.227 36.6777C146.083 36.8367 144.898 36.815 143.402 37.4003C141.906 37.9855 140.917 38.7658 140.729 38.7225C140.541 38.6791 140.729 38.4696 141.184 38.1084C141.812 37.5956 142.523 37.1948 143.286 36.9234C144.015 36.643 144.789 36.4985 145.57 36.4971C146.09 36.4827 146.299 36.6055 146.227 36.6777Z" fill="#263238"/>
<path d="M129.132 41.6126C129.178 41.9976 129.072 42.3852 128.838 42.6939C128.603 43.0026 128.258 43.2081 127.875 43.2672C127.5 43.3348 127.113 43.2511 126.799 43.0346C126.485 42.818 126.269 42.4861 126.199 42.1112C126.149 41.7266 126.252 41.338 126.486 41.0286C126.72 40.7193 127.065 40.5139 127.449 40.4566C127.825 40.3869 128.214 40.4695 128.53 40.6863C128.845 40.903 129.062 41.2362 129.132 41.6126Z" fill="#263238"/>
<path d="M130.686 39.7051C130.469 39.7918 129.356 39.1271 127.629 38.8742C125.903 38.6213 124.551 38.8742 124.385 38.7586C124.219 38.643 124.551 38.5202 125.108 38.3829C125.975 38.2108 126.865 38.1936 127.738 38.3323C128.584 38.4481 129.4 38.7227 130.144 39.1415C130.657 39.4378 130.823 39.669 130.686 39.7051Z" fill="#263238"/>
<path d="M137.738 49.5315C138.544 49.1665 139.394 48.9067 140.266 48.7584C140.664 48.6717 141.039 48.5488 141.076 48.2598C141.063 47.8364 140.919 47.4274 140.664 47.0893C140.182 46.126 139.662 45.1409 139.103 44.1342C136.936 39.9219 135.288 36.4393 135.49 36.3526C135.693 36.2659 137.571 39.6112 139.753 43.8235L141.263 46.8003C141.577 47.2621 141.718 47.82 141.661 48.3754C141.618 48.5254 141.542 48.6638 141.438 48.7802C141.334 48.8966 141.205 48.9879 141.061 49.0474C140.843 49.1329 140.615 49.1912 140.382 49.2208C139.517 49.4343 138.628 49.5386 137.738 49.5315Z" fill="#263238"/>
<path d="M140.888 67.0165C135.491 67.8145 129.978 67.0628 124.992 64.849C124.992 64.849 129.739 72.9701 141.155 70.5425L140.888 67.0165Z" fill="#EB996E"/>
<path d="M137.918 53.4259C137.53 52.9197 137.033 52.5071 136.464 52.2183C135.895 51.9294 135.269 51.7718 134.631 51.7568C134.262 51.7645 133.904 51.884 133.605 52.0995C133.306 52.3149 133.079 52.6162 132.954 52.9635C132.83 53.412 132.815 53.8841 132.912 54.3394C133.009 54.7948 133.214 55.2201 133.511 55.579C133.802 55.9588 134.198 56.2452 134.65 56.4031C135.102 56.561 135.59 56.5834 136.054 56.4677C136.808 56.1568 137.45 55.6254 137.896 54.9432C138.058 54.7695 138.175 54.5585 138.236 54.329C138.262 54.1842 138.257 54.0354 138.219 53.8931C138.182 53.7507 138.114 53.6184 138.019 53.5054" fill="#EB996E"/>
<path d="M133.178 51.1789C133.439 51.1283 133.641 52.8551 135.259 53.91C136.878 54.9649 138.699 54.5603 138.742 54.7987C138.742 54.9071 138.373 55.1816 137.593 55.2972C136.584 55.4287 135.561 55.2011 134.703 54.6542C133.879 54.1247 133.294 53.2956 133.07 52.3421C132.918 51.5979 133.063 51.1789 133.178 51.1789Z" fill="#263238"/>
<path d="M131.191 32.6027C131.04 33.0362 129.436 32.8556 127.579 33.1157C125.722 33.3758 124.19 33.9033 123.93 33.5203C123.814 33.3325 124.074 32.9206 124.652 32.4871C125.461 31.9535 126.38 31.6111 127.34 31.486C128.3 31.3608 129.276 31.4561 130.194 31.7646C130.902 32.0897 131.256 32.3932 131.191 32.6027Z" fill="#263238"/>
<path d="M146.314 33.1157C146.003 33.5131 144.601 33.2963 142.961 33.4625C141.321 33.6287 139.963 34.0477 139.602 33.7009C139.435 33.5348 139.602 33.1446 140.187 32.74C140.982 32.2301 141.889 31.9205 142.83 31.8374C143.772 31.7544 144.719 31.9004 145.591 32.2631C146.213 32.5738 146.444 32.9206 146.314 33.1157Z" fill="#263238"/>
<path d="M102.16 60.3766C102.449 55.1383 103.288 38.3685 106.669 29.2213C110.05 20.0741 114.812 15.9774 119.711 14.0483C121.561 13.2577 123.584 12.9581 125.584 13.1784C127.583 13.3986 129.493 14.1313 131.126 15.3055C133.641 17.0829 135.1 22.9353 135.1 22.9353C135.1 22.9353 123.215 27.0393 119.927 34.4957C116.12 43.0215 115.44 47.1688 115.44 47.1688L114.414 51.7135C114.414 51.7135 116.647 71.4673 117.651 75.5568L101.539 91.1344C102.067 85.9901 101.871 65.6076 102.16 60.3766Z" fill="#263238"/>
<path d="M135.454 22.9642C135.454 22.9642 142.34 21.4108 145.815 28.9901C147.39 32.4221 148.951 42.812 148.951 42.812C148.951 42.812 149.536 34.3223 148.626 29.7054C147.716 25.0884 144.717 19.4527 140.772 16.5988C136.827 13.7448 133.836 12.6682 127.666 13.752C129.524 14.2166 131.21 15.2017 132.528 16.5915C133.46 17.6826 133.923 18.6507 135.454 22.9642Z" fill="#263238"/>
<path d="M115.57 47.7323C115.151 45.189 112.174 43.8018 110.108 45.3408C108.974 46.1789 108.208 47.6962 108.627 50.3984C109.754 57.6237 116.741 54.9792 116.719 54.7769C116.697 54.5746 116.062 50.7019 115.57 47.7323Z" fill="#FFBE9D"/>
<path d="M114.096 52.3854C114.096 52.3854 113.988 52.4938 113.793 52.6239C113.512 52.7949 113.177 52.8542 112.854 52.79C112.052 52.6311 111.228 51.5184 110.99 50.2323C110.874 49.6182 110.899 48.9859 111.062 48.3826C111.091 48.1467 111.179 47.9217 111.316 47.7276C111.453 47.5335 111.637 47.3763 111.849 47.2699C111.988 47.2116 112.143 47.2027 112.288 47.2448C112.432 47.2869 112.558 47.3774 112.644 47.5012C112.774 47.689 112.745 47.8335 112.789 47.8407C112.832 47.848 112.926 47.6962 112.789 47.4072C112.721 47.2353 112.596 47.0923 112.435 47.0026C112.212 46.885 111.953 46.859 111.712 46.9304C111.425 47.0356 111.17 47.2123 110.97 47.4436C110.77 47.675 110.633 47.9534 110.57 48.2526C110.363 48.9215 110.323 49.6311 110.455 50.319C110.722 51.7641 111.676 53.0068 112.767 53.1441C112.968 53.1696 113.173 53.1498 113.365 53.086C113.558 53.0223 113.733 52.9162 113.88 52.7756C114.111 52.5588 114.125 52.3926 114.096 52.3854Z" fill="#EB996E"/>
<path d="M122.55 13.2535C122.55 13.3113 123.547 13.1668 125.137 13.1957C126.067 13.214 126.988 13.3773 127.868 13.6798C128.936 14.0749 129.918 14.6736 130.758 15.4428C132.313 16.8325 133.525 18.5636 134.299 20.5004C134.891 21.9455 135.021 22.9715 135.108 22.957C135.097 22.7254 135.063 22.4954 135.007 22.2706C134.431 19.5637 133.002 17.1125 130.932 15.2766C130.065 14.4738 129.045 13.8545 127.933 13.4558C127.03 13.1536 126.082 13.0046 125.13 13.0151C124.492 13.0148 123.855 13.0558 123.222 13.1379C122.995 13.1578 122.771 13.1964 122.55 13.2535Z" fill="#455A64"/>
<path d="M109.48 53.7221C109.482 53.6812 109.482 53.6402 109.48 53.5993L109.378 53.2742C109.328 53.1224 109.277 52.9418 109.212 52.7395L109.017 52.017C108.623 50.4375 108.458 48.8097 108.526 47.1833C108.618 44.7707 109.211 42.4036 110.267 40.2326C111.617 37.6041 113.544 35.3146 115.903 33.5348C117.113 32.6005 118.38 31.7415 119.696 30.9626C120.968 30.1967 122.247 29.5609 123.431 28.8528C125.504 27.5886 127.475 26.1658 129.327 24.5971C130.91 23.2605 132.131 22.1117 132.94 21.3024C133.352 20.8978 133.662 20.5799 133.872 20.3559L134.11 20.103C134.161 20.0452 134.19 20.0163 134.183 20.0091L134.096 20.0814L133.836 20.3198L132.882 21.2519C132.037 22.0394 130.801 23.1666 129.204 24.4743C127.345 26.017 125.375 27.4201 123.309 28.6722C122.138 29.3947 120.845 29.9944 119.566 30.7675C118.237 31.5461 116.961 32.4101 115.744 33.3542C113.345 35.151 111.388 37.4714 110.021 40.1387C108.961 42.3399 108.38 44.7409 108.316 47.1833C108.267 48.8234 108.459 50.4619 108.887 52.0459L109.104 52.7684C109.183 52.9707 109.248 53.1441 109.299 53.2958L109.429 53.621C109.458 53.686 109.472 53.7221 109.48 53.7221Z" fill="#455A64"/>
<path d="M107.493 51.1788C107.493 51.1788 107.493 51.1355 107.493 51.0632L107.449 50.7164C107.449 50.413 107.334 49.9939 107.276 49.3942C107.106 47.7668 107.079 46.1276 107.196 44.4955C107.373 42.0784 107.859 39.6939 108.641 37.4003C109.62 34.599 111.047 31.9756 112.868 29.6331C114.744 27.3181 116.932 25.2754 119.371 23.5639C121.539 21.9455 123.706 20.6738 125.433 19.5323C127.16 18.3907 128.598 17.5164 129.559 16.8517C130.043 16.5338 130.404 16.2664 130.65 16.0858L130.931 15.8835L131.025 15.804C131.025 15.804 130.982 15.804 130.917 15.8618L130.621 16.0425L129.501 16.765C128.533 17.3936 127.102 18.2823 125.332 19.3661C123.562 20.4499 121.452 21.7504 119.226 23.3689C116.783 25.0823 114.593 27.133 112.724 29.4597C110.866 31.8246 109.414 34.481 108.425 37.3208C107.633 39.6367 107.147 42.0463 106.98 44.4883C106.879 46.1275 106.935 47.7727 107.146 49.4014C107.218 49.9794 107.319 50.4202 107.37 50.7236C107.37 50.8609 107.42 50.9765 107.442 51.0632C107.464 51.1499 107.485 51.1788 107.493 51.1788Z" fill="#455A64"/>
<path d="M146.068 79.0033C146.068 79.0033 155.382 82.7893 157.166 87.6374C158.951 92.4856 172.491 132.521 172.491 132.521L156.776 138.547L149.609 105.599L146.068 79.0033Z" fill="#455A64"/>
<path d="M97.9193 192.692C97.9193 192.692 194.015 188.278 200.048 189.867C206.081 191.457 209.687 194.499 210.886 201.731C212.085 208.964 230.611 304.785 230.611 304.785L213.762 309.742C213.762 309.742 190.121 255.769 189.116 246.737C188.112 237.706 184.781 219.195 184.781 219.195C184.781 219.195 148.25 219.794 121.351 219.195C94.4512 218.595 98.0638 193.697 98.0638 193.697L97.9193 192.692Z" fill="#FFBE9D"/>
<path d="M213.552 310.175L213.429 309.886C212.461 307.675 189.759 255.762 188.762 246.773C187.837 238.486 184.926 221.991 184.492 219.556C180.88 219.614 146.654 220.12 121.358 219.556C112.998 219.368 106.705 216.832 102.637 212.027C96.4814 204.751 97.5796 194.564 97.7169 193.704L97.4929 192.353H97.8975C101.828 192.172 194.131 187.953 200.142 189.542C206.89 191.327 210.106 194.846 211.247 201.688C212.432 208.826 230.755 303.781 230.972 304.742L231.03 305.06L213.552 310.175ZM185.092 218.826L185.15 219.13C185.186 219.31 188.488 237.756 189.485 246.694C190.431 255.227 212.093 305.009 213.971 309.301L230.206 304.532C229.021 298.398 211.695 208.725 210.539 201.789C209.455 195.286 206.392 191.919 199.961 190.229C194.268 188.719 105.159 192.736 98.3455 193.047L98.4539 193.704V193.755C98.4539 193.863 97.0088 204.26 103.208 211.572C107.139 216.211 113.251 218.653 121.387 218.841C147.969 219.433 184.434 218.841 184.803 218.841L185.092 218.826Z" fill="#EB996E"/>
<path d="M104.407 140.866L106.828 155.837C106.828 155.837 96.3152 175.757 95.1302 192.88C94.5667 201.016 99.2342 217.677 99.2342 217.677C99.2342 217.677 136.256 221.745 156.227 221.225L177.534 220.293L181.291 187.006L157.376 183.553L157.737 138.192C157.737 138.192 162.072 126.249 162.404 122.716C163.17 115.26 162.852 107.716 155.403 98.049L146.068 79.0033L142.954 77.5582L144.435 100.628L117.601 75.1305L104.01 80.0076L100.159 98.1791L104.407 140.866Z" fill="#455A64"/>
<g opacity="0.3">
<path d="M150.924 189.065C149.182 189.369 136.618 189.55 134.876 189.853C134.58 189.944 134.268 189.973 133.96 189.94C133.652 189.906 133.354 189.81 133.085 189.658C132.867 189.452 132.716 189.186 132.652 188.893C132.588 188.601 132.612 188.296 132.723 188.018C132.954 187.458 133.316 186.963 133.778 186.573C136.82 183.683 140.772 182.014 144.616 180.381C145.844 179.868 147.174 179.34 148.46 179.658C149.09 179.867 149.661 180.226 150.122 180.704C150.582 181.182 150.92 181.766 151.104 182.404C151.471 183.678 151.622 185.003 151.552 186.327" fill="black"/>
</g>
<g opacity="0.3">
<path d="M105.397 151.306C109.884 150.259 112.702 145.837 114.523 141.603C116.343 137.369 117.846 132.694 121.416 129.775C124.031 127.607 127.535 126.654 129.797 124.139C130.872 122.908 131.584 121.402 131.856 119.79C132.128 118.178 131.948 116.523 131.336 115.007C130.686 113.46 129.378 112.001 127.723 111.914C125.772 111.813 124.255 113.504 123.063 115.057C117.61 122.201 112.468 129.57 107.637 137.166C105.043 141.249 102.456 146.205 104.263 150.692" fill="black"/>
</g>
<path d="M105.426 82.3919C105.426 82.3919 97.8323 84.8052 95.0867 89.5666C92.3411 94.328 87.7892 117.449 86.691 123.677C85.5928 129.905 80.2822 155.533 86.691 159.565C93.0998 163.596 101.524 157.397 103.721 153.705C105.917 150.013 114.884 130.816 114.884 130.816L106.828 124.045C106.828 124.045 108.273 105.737 107.745 101.886C107.218 98.0346 105.426 82.3919 105.426 82.3919Z" fill="#FFBE9D"/>
<path d="M81.6118 129.927L99.2342 131.076L107.283 121.625L109.508 106.741L108.916 78.2662C108.916 78.2662 93.1867 82.1028 89.7836 94.0606C87.262 102.897 81.6118 129.927 81.6118 129.927Z" fill="#455A64"/>
<path d="M112.796 96.2499C111.784 96.1126 110.491 97.3048 111.351 100.18C112.073 102.579 113.432 104.913 113.331 106.25C113.229 107.586 112.709 110.368 112.709 111.813C112.646 113.226 112.509 114.634 112.297 116.033L100.303 130.483L110.686 139.645L118.901 126.74C118.901 126.74 121.38 127.152 122.817 125.505L124.985 123.027C124.985 123.027 130.548 120.967 129.414 117.969C129.414 117.969 131.061 116.401 129.566 113.887C129.566 113.887 130.346 111.271 129.212 109.732C129.212 109.732 129.111 106.228 128.178 105.607C127.246 104.985 117.608 104.884 117.608 104.884C117.083 103.282 116.478 101.707 115.794 100.166C114.74 98.4247 114.205 96.4377 112.796 96.2499Z" fill="#FFBE9D"/>
<path d="M116.9 110.462C116.9 110.498 116.647 110.361 116.423 110.021C116.131 109.564 116.004 109.02 116.061 108.481C116.119 107.941 116.359 107.437 116.741 107.052C117.03 106.77 117.276 106.683 117.297 106.719C116.868 107.239 116.572 107.857 116.437 108.518C116.438 109.193 116.597 109.859 116.9 110.462Z" fill="#EB996E"/>
<path d="M128.807 109.472C127.354 109.896 125.859 110.16 124.349 110.26C122.852 110.477 121.335 110.528 119.826 110.411C121.311 110.153 122.809 109.977 124.313 109.884C125.802 109.661 127.302 109.523 128.807 109.472Z" fill="#EB996E"/>
<path d="M129.66 113.605C128.462 114.091 127.198 114.393 125.91 114.501C124.64 114.736 123.342 114.78 122.059 114.631C122.059 114.523 123.764 114.414 125.859 114.125C127.955 113.836 129.638 113.504 129.66 113.605Z" fill="#EB996E"/>
<path d="M129.45 117.846C127.581 118.419 125.615 118.614 123.67 118.417C124.621 118.209 125.588 118.086 126.56 118.048C127.516 117.897 128.483 117.83 129.45 117.846Z" fill="#EB996E"/>
<path d="M120.346 119.147C120.346 119.19 120.144 119.147 119.898 119.009C119.575 118.789 119.347 118.453 119.262 118.07C119.17 117.692 119.221 117.293 119.407 116.95C119.551 116.697 119.71 116.596 119.747 116.625C119.783 116.654 119.45 117.254 119.624 117.983C119.797 118.713 120.397 119.053 120.346 119.147Z" fill="#EB996E"/>
<path d="M117.977 115.707C117.977 115.744 117.738 115.621 117.514 115.31C117.227 114.9 117.061 114.416 117.037 113.916C117.007 113.414 117.118 112.914 117.355 112.471C117.55 112.138 117.738 111.994 117.774 112.023C117.553 112.62 117.431 113.25 117.413 113.887C117.505 114.519 117.695 115.134 117.977 115.707Z" fill="#EB996E"/>
<path d="M126.488 122.405C125.964 122.683 125.388 122.85 124.797 122.897C124.225 123.061 123.624 123.103 123.034 123.019C123.557 122.739 124.133 122.571 124.725 122.528C125.297 122.359 125.898 122.317 126.488 122.405Z" fill="#EB996E"/>
<path d="M121.842 104.949C121.842 105.058 120.397 105.058 118.569 105.238C116.741 105.419 115.332 105.701 115.303 105.599C116.327 105.166 117.422 104.921 118.533 104.877C119.632 104.705 120.752 104.729 121.842 104.949Z" fill="#EB996E"/>
<path d="M153.568 139.681H213.292C214.346 139.681 215.357 140.1 216.102 140.845C216.847 141.59 217.266 142.601 217.266 143.655V185.987H149.609V143.648C149.611 142.597 150.028 141.591 150.77 140.847C151.512 140.104 152.518 139.685 153.568 139.681Z" fill="#E0E0E0"/>
<path d="M217.266 189.065H137.788C137.788 188.257 138.109 187.481 138.681 186.909C139.253 186.338 140.028 186.016 140.837 186.016H217.266V189.065Z" fill="#E0E0E0"/>
<path d="M214.766 142.658H151.661V186.016H214.766V142.658Z" fill="white"/>
<path d="M214.759 185.987C214.759 185.987 214.759 185.713 214.759 185.193C214.759 184.672 214.759 183.892 214.759 182.895C214.759 180.879 214.759 177.931 214.715 174.16C214.715 166.617 214.672 155.8 214.636 142.629L214.787 142.78H151.689L151.877 142.593C151.877 158.076 151.877 172.78 151.877 185.944L151.711 185.771L197.165 185.857L210.171 185.908H213.631H214.52H214.831H214.542H213.668H210.243L197.302 185.951L151.733 186.038H151.559V185.987C151.559 172.816 151.559 158.112 151.559 142.636V142.448H151.747H214.845H214.997V142.636C214.997 155.844 214.939 166.696 214.918 174.261C214.918 178.018 214.918 180.951 214.918 182.931C214.918 183.921 214.918 184.68 214.918 185.2C214.918 185.72 214.759 185.987 214.759 185.987Z" fill="#263238"/>
<path d="M216.933 185.987C216.933 186.096 199.875 186.175 178.835 186.175C157.795 186.175 140.729 186.096 140.729 185.987C140.729 185.879 157.788 185.8 178.835 185.8C199.882 185.8 216.933 185.915 216.933 185.987Z" fill="#263238"/>
<path d="M183.206 180.923C192.364 180.923 199.788 173.499 199.788 164.341C199.788 155.183 192.364 147.759 183.206 147.759C174.048 147.759 166.624 155.183 166.624 164.341C166.624 173.499 174.048 180.923 183.206 180.923Z" fill="#FF725E"/>
<path d="M172.903 164.745L176.414 161.422L181.262 165.887L190.807 156.906L194.275 160.186L181.212 172.585L172.903 164.745Z" fill="white"/>
<path d="M112.312 116.033C112.391 116.098 107.413 122.109 101.192 129.45C94.9714 136.791 89.8631 142.687 89.7837 142.636C89.7042 142.585 94.6824 136.567 100.903 129.219C107.124 121.871 112.233 115.968 112.312 116.033Z" fill="#EB996E"/>
<path d="M111.452 106.719C111.29 108.815 111.003 110.9 110.592 112.962C110.308 115.046 109.898 117.112 109.364 119.147C109.526 117.048 109.813 114.961 110.224 112.897C110.513 110.816 110.923 108.753 111.452 106.719Z" fill="#263238"/>
<path d="M157.737 138.192C157.763 138.045 157.801 137.9 157.853 137.759L158.243 136.545C158.59 135.497 159.103 133.98 159.688 132.094C160.387 129.891 160.97 127.653 161.436 125.389C162.018 122.625 162.278 119.803 162.209 116.979C161.948 111.838 160.504 106.826 157.99 102.334C157.243 100.966 156.423 99.6391 155.533 98.3597C155.23 97.9045 154.97 97.5649 154.811 97.3265C154.718 97.2077 154.638 97.0794 154.572 96.9435C154.683 97.0434 154.782 97.1548 154.869 97.2759C155.056 97.5071 155.338 97.8322 155.663 98.2802C156.602 99.5325 157.462 100.843 158.235 102.204C159.385 104.229 160.332 106.364 161.061 108.576C161.967 111.286 162.49 114.11 162.614 116.965C162.687 119.819 162.415 122.672 161.805 125.462C161.318 127.731 160.706 129.972 159.97 132.174C159.348 134.052 158.799 135.562 158.409 136.596C158.221 137.077 158.069 137.475 157.954 137.788C157.898 137.931 157.825 138.067 157.737 138.192Z" fill="#263238"/>
<path d="M142.383 115.693C142.413 116.03 142.413 116.368 142.383 116.705C142.382 117.101 142.353 117.497 142.297 117.889C142.245 118.414 142.165 118.934 142.058 119.45C141.943 120.076 141.788 120.693 141.596 121.3C141.392 122.003 141.151 122.696 140.873 123.373C140.206 124.902 139.378 126.356 138.402 127.709C137.402 129.059 136.256 130.295 134.985 131.393C134.428 131.869 133.844 132.313 133.236 132.723C132.716 133.092 132.173 133.428 131.611 133.727C131.144 133.997 130.661 134.238 130.165 134.45C129.81 134.623 129.443 134.77 129.067 134.89C128.755 135.019 128.43 135.118 128.099 135.187C128.063 135.107 129.45 134.681 131.444 133.518C131.99 133.204 132.518 132.862 133.027 132.492C133.59 132.116 134.132 131.639 134.725 131.155C137.214 128.965 139.188 126.251 140.505 123.207C140.78 122.546 141.022 121.871 141.227 121.184C141.427 120.587 141.593 119.979 141.726 119.363C142.326 117.138 142.311 115.693 142.383 115.693Z" fill="#263238"/>
<path d="M162.246 122.261C162.204 122.221 162.17 122.175 162.144 122.124L161.892 121.683C161.653 121.285 161.328 120.744 160.916 120.072C160.504 119.4 159.861 118.576 159.189 117.637C158.517 116.697 157.665 115.671 156.762 114.523C153.048 109.985 147.564 104.024 141.278 97.6589C134.992 91.2934 129.089 85.7444 124.761 81.7633L121.813 79.1261C120.946 78.3602 120.195 77.681 119.566 77.1608L118.121 75.9398L117.752 75.6146C117.705 75.5809 117.663 75.5393 117.63 75.4918C117.681 75.5172 117.73 75.5488 117.774 75.5857C117.883 75.6652 118.013 75.7591 118.164 75.882L119.653 77.0452L121.943 78.9671C122.832 79.733 123.829 80.6073 124.927 81.5682C129.313 85.4699 135.23 91.0116 141.545 97.3698C147.86 103.728 153.301 109.739 156.964 114.328C157.86 115.491 158.669 116.538 159.363 117.478L161.039 119.963C161.422 120.686 161.761 121.206 161.957 121.618L162.188 122.051C162.236 122.191 162.255 122.261 162.246 122.261Z" fill="#263238"/>
<path d="M148.214 155.685C148.081 155.731 147.943 155.758 147.802 155.764L146.625 155.93C145.599 156.068 144.103 156.227 142.289 156.393C138.597 156.725 133.475 156.993 127.839 156.928C122.203 156.862 117.059 156.451 113.388 156.032C111.546 155.822 110.058 155.62 109.053 155.454L107.876 155.266C107.737 155.251 107.602 155.219 107.471 155.172C107.61 155.154 107.751 155.154 107.89 155.172L109.075 155.295C110.101 155.417 111.597 155.576 113.41 155.75C117.088 156.104 122.196 156.472 127.861 156.537C133.525 156.602 138.619 156.371 142.311 156.111C144.154 155.981 145.649 155.865 146.646 155.771L147.831 155.678C147.959 155.667 148.087 155.669 148.214 155.685Z" fill="#263238"/>
<path d="M179.507 139.63C179.507 139.63 191.342 135.013 192.461 134.645C193.581 134.276 203.928 133.467 203.928 133.467L217.266 138.258C217.266 138.258 217.389 140.996 214.274 140.627C211.529 140.164 208.822 139.497 206.175 138.633L204.304 139.746L179.507 139.63Z" fill="#FFBE9D"/>
<path d="M216.623 141.386C216.933 142.015 217.743 142.109 218.364 142.441C218.939 142.777 219.41 143.265 219.725 143.851C220.04 144.438 220.186 145.1 220.149 145.765C220.045 147.093 219.605 148.374 218.87 149.486C218.644 149.935 218.318 150.325 217.916 150.627C217.71 150.77 217.466 150.847 217.215 150.847C216.965 150.847 216.72 150.77 216.514 150.627C216.317 150.387 216.184 150.1 216.129 149.794C216.073 149.488 216.096 149.173 216.196 148.879C216.579 146.574 216.081 143.655 216.623 141.379" fill="#FFBE9D"/>
<path d="M230.033 301.208L230.437 302.336C230.437 302.336 252.402 303.195 253.905 306.765L215.698 320.189L211.746 307.292C218.357 307.928 224.404 306.136 230.033 301.208Z" fill="#455A64"/>
<g opacity="0.6">
<path d="M217.049 309.994C216.72 310.237 216.492 310.592 216.408 310.991C216.324 311.391 216.39 311.808 216.594 312.162C216.824 312.506 217.179 312.747 217.583 312.835C217.987 312.922 218.41 312.849 218.762 312.632C219.11 312.376 219.351 312 219.438 311.577C219.525 311.154 219.451 310.713 219.231 310.341C218.956 310.016 218.565 309.81 218.141 309.765C217.717 309.721 217.292 309.842 216.955 310.103" fill="white"/>
</g>
<g opacity="0.6">
<path d="M215.698 320.189L214.751 317.09L251.716 305.356C251.716 305.356 253.674 305.5 253.883 306.801L215.698 320.189Z" fill="white"/>
</g>
<path d="M230.611 302.401C230.669 302.589 229.766 303 229.057 303.925C228.349 304.85 228.14 305.804 227.945 305.789C227.75 305.775 227.641 304.597 228.516 303.499C229.39 302.401 230.589 302.213 230.611 302.401Z" fill="#263238"/>
<path d="M235.199 302.646C235.307 302.813 234.606 303.412 234.252 304.424C233.898 305.435 234.007 306.338 233.819 306.396C233.631 306.454 233.14 305.435 233.609 304.185C234.079 302.935 235.134 302.473 235.199 302.646Z" fill="#263238"/>
<path d="M239.158 306.649C239.006 306.75 238.436 305.927 238.537 304.72C238.638 303.513 239.389 302.82 239.519 302.943C239.65 303.065 239.31 303.81 239.223 304.785C239.137 305.76 239.339 306.562 239.158 306.649Z" fill="#263238"/>
</svg>
